<svg width="31" height="18" viewBox="0 0 31 18" fill="none" xmlns="http://www.w3.org/2000/svg">
<path d="M2.325 18C1.705 18 1.1625 17.775 0.6975 17.325C0.2325 16.875 0 16.35 0 15.75V2.25C0 1.675 0.2325 1.15625 0.6975 0.69375C1.1625 0.23125 1.705 0 2.325 0H28.675C29.295 0 29.8375 0.23125 30.3025 0.69375C30.7675 1.15625 31 1.675 31 2.25V15.75C31 16.35 30.7675 16.875 30.3025 17.325C29.8375 17.775 29.295 18 28.675 18H2.325ZM2.325 15.75H28.675V2.25H23.6375V9H21.3125V2.25H16.6625V9H14.3375V2.25H9.6875V9H7.3625V2.25H2.325V15.75ZM7.3625 9H9.6875H7.3625ZM14.3375 9H16.6625H14.3375ZM21.3125 9H23.6375H21.3125Z" fill="black"/>
</svg>
