<svg width="165" height="36" viewBox="0 0 165 36" fill="none" xmlns="http://www.w3.org/2000/svg">
<path d="M164.213 25.4571C164.076 25.4571 163.939 25.4845 163.802 25.4845H154.523C154.413 27.0995 155.262 29.043 156.986 29.8368C158.437 30.4938 160.764 30.5212 162.543 28.3039L164.021 29.4536C163.394 30.4896 162.441 31.2885 161.311 31.7256C159.568 32.4149 157.627 32.4051 155.891 31.6982C155.054 31.3708 154.305 30.8508 153.706 30.1802C153.107 29.5097 152.674 28.7075 152.442 27.8386C151.793 25.7693 151.86 23.5415 152.634 21.5153C153.4 19.5171 154.796 18.0937 156.904 17.5736C159.751 16.8892 163.063 17.902 163.966 21.9533C164.076 22.4734 164.131 23.0209 164.24 23.541V25.4571H164.213ZM161.749 23.4588V23.2125C161.694 22.8293 161.667 22.446 161.585 22.0902C161.037 19.7361 158.711 18.6411 156.658 19.7908C155.262 20.5846 154.796 21.9259 154.577 23.4588H161.749Z" fill="black"/>
<path d="M18.8603 27.1818C16.7524 26.1055 14.746 24.8412 12.8655 23.4043C14.1794 23.1853 15.4386 22.9937 16.643 22.5283C14.2068 22.9115 11.9622 22.5283 10.046 20.8859C11.4872 20.8541 12.9162 20.6143 14.2889 20.1742C11.6884 19.791 9.22484 19.1614 7.6098 16.8073C9.22484 17.2452 10.8125 17.6285 12.5096 17.5463C12.4275 17.519 12.3454 17.4642 12.2633 17.4369C10.0734 16.6978 7.96566 15.7671 6.10427 14.371C4.89425 13.5093 3.89329 12.3867 3.17531 11.0862C2.87017 10.5533 2.66601 9.9687 2.5731 9.3617C3.9144 10.2377 5.22832 11.1684 6.59699 12.0169C7.95925 12.8776 9.45922 13.498 11.0315 13.8509C10.944 13.7902 10.8525 13.7353 10.7577 13.6867C7.77405 11.9348 5.11883 9.82705 3.03845 7.03496C1.62815 5.20102 0.637646 3.07984 0.136867 0.821198C0.0821202 0.574837 0.0547468 0.328481 0 0C0.109494 0.0821202 0.136867 0.109491 0.16424 0.164238C3.31218 4.48924 7.47294 7.41819 12.4549 9.25221C14.2889 9.93655 16.0956 10.6209 17.8475 11.4147C19.9279 12.296 21.6864 13.7966 22.8842 15.7123C22.9832 15.8671 23.0311 16.049 23.021 16.2324C22.7558 20.1207 21.3674 23.8483 19.0245 26.9628C18.9882 27.048 18.9319 27.1231 18.8603 27.1818Z" fill="black"/>
<path d="M37.3923 22.7199C34.4633 26.8807 30.8774 30.3024 26.2513 32.6291C19.0521 36.2424 11.0317 36.2424 7.00781 35.3664C11.6499 34.67 15.9269 32.4448 19.1616 29.0432C22.5012 25.5668 24.1983 21.3239 24.5815 16.4514C25.6217 18.2581 26.0323 20.1742 26.6345 22.063C29.1255 18.3949 32.4651 16.3146 37.0091 16.5335C36.996 16.5502 36.9794 16.5638 36.9605 16.5733C36.9416 16.5828 36.9207 16.5879 36.8996 16.5883C36.8722 16.6157 36.8174 16.6157 36.7901 16.643C36.2782 16.8192 35.8316 17.1462 35.5091 17.5811C35.1866 18.016 35.0034 18.5383 34.9834 19.0793C34.9013 19.8183 34.7918 20.5574 34.6549 21.2965C34.4442 22.3068 34.0348 23.2652 33.4505 24.116C33.39 24.2131 33.3352 24.3136 33.2863 24.4171C34.5455 23.5959 35.8594 22.8842 37.3923 22.7199Z" fill="black"/>
<path d="M40.8408 29.6726C41.5251 30.1927 42.2094 30.6854 42.9211 31.2329C41.44 31.3317 39.9703 30.9159 38.7604 30.0559C38.9206 30.2251 39.0945 30.3808 39.2805 30.5212C39.4721 30.6854 39.6637 30.8497 39.8827 31.0139C40.0743 31.1508 40.2659 31.315 40.5396 31.5066C37.3789 32.0173 34.1604 32.0634 30.9863 31.6435C31.0958 31.5614 31.1506 31.4793 31.2327 31.4245C33.9122 29.4527 36.2436 27.0473 38.1308 24.3074C38.1811 24.2282 38.2495 24.162 38.3304 24.1144C38.4114 24.0668 38.5024 24.0392 38.5961 24.0337C40.0469 23.8968 41.4156 24.2253 42.8116 24.5812C44.2077 24.937 45.5764 25.3203 46.9998 25.5666C49.655 26.032 52.2555 25.7035 54.8286 24.9644C55.2118 24.8549 55.595 24.718 55.9782 24.6085C56.0056 24.6085 56.0056 24.6085 56.0877 24.6359C55.9491 24.7805 55.8029 24.9175 55.6498 25.0465C54.1577 26.2209 52.3999 27.0106 50.5309 27.3459C48.7482 27.7056 46.9266 27.8344 45.111 27.7291C47.1366 28.3313 49.217 28.304 51.3521 28.2492C51.2036 28.3677 51.0482 28.4774 50.8868 28.5777C50.0416 29.0393 49.1092 29.319 48.1494 29.3989C46.4866 29.5234 44.8145 29.3848 43.1949 28.9883C43.1317 28.9745 43.0664 28.9745 43.0032 28.9883C43.8792 29.5358 44.892 29.8095 45.8775 30.1106C44.1803 30.6854 42.62 30.2201 41.0324 29.6179C40.8681 29.6179 40.8408 29.6453 40.8408 29.6726Z" fill="black"/>
<path d="M141.165 23.2675C141.144 22.5707 141.08 21.8759 140.973 21.1871C140.893 20.8035 140.71 20.4486 140.446 20.1597C140.181 19.8707 139.843 19.6583 139.468 19.5447C138.516 19.2015 137.47 19.2308 136.539 19.6268C135.69 19.9827 135.061 20.5575 134.979 21.5703H132.46C132.534 21.1598 132.644 20.7568 132.789 20.3659C133.277 19.2877 134.158 18.4362 135.252 17.9844C136.895 17.2305 138.762 17.123 140.481 17.6833C142.479 18.3129 143.546 19.9005 143.574 22.1178C143.574 24.4445 143.574 26.7986 143.601 29.1254C143.595 29.9487 143.744 30.7657 144.039 31.5342C144.067 31.6164 144.067 31.7259 144.094 31.8627H141.63C141.548 31.8627 141.439 31.7259 141.411 31.6437C141.302 31.2605 141.22 30.8499 141.138 30.4119C141.056 30.4941 140.946 30.5762 140.864 30.6583C140.031 31.4296 138.985 31.9333 137.863 32.1041C136.741 32.2749 135.593 32.105 134.568 31.6164C133.227 30.932 132.351 29.8645 132.241 28.3042C132.104 26.6344 132.679 25.2657 134.13 24.3077C135.307 23.5412 136.621 23.2949 137.99 23.2401C138.893 23.2127 139.824 23.2127 140.727 23.2127C140.867 23.2633 141.017 23.282 141.165 23.2675ZM141.11 24.992H139.03C138.691 24.9829 138.353 25.0012 138.017 25.0467C137.338 25.1527 136.669 25.3176 136.019 25.5395C135.088 25.9227 134.65 26.6891 134.677 27.702C134.671 28.1789 134.82 28.6449 135.101 29.03C135.383 29.4151 135.781 29.6983 136.238 29.8371C137.853 30.4393 140.097 29.6181 140.973 28.1399C141.034 28.0401 141.072 27.9278 141.083 27.8115C141.11 26.9081 141.11 25.9774 141.11 24.992Z" fill="black"/>
<path d="M108.098 31.9174H106.209C105.443 31.9174 105.443 31.9174 105.306 31.1783C105.252 30.9441 105.215 30.7062 105.196 30.4666C105.087 30.5761 105.005 30.6308 104.922 30.7129C103.198 32.2732 101.2 32.6017 99.0372 31.8353C97.5043 31.2878 96.4914 30.1929 96.2998 28.4957C96.1082 26.6617 96.7378 25.2109 98.3802 24.2528C99.4829 23.6328 100.729 23.312 101.994 23.3221C102.924 23.2948 103.855 23.2948 104.813 23.2948H105.251C105.237 22.5964 105.163 21.9005 105.032 21.2144C104.945 20.8324 104.757 20.4809 104.487 20.1968C104.217 19.9126 103.876 19.7063 103.499 19.5993C102.567 19.261 101.543 19.2805 100.625 19.6541C99.7489 20.01 99.0919 20.5848 99.0098 21.625H96.5736C96.5794 21.0667 96.7303 20.5196 97.0115 20.0373C97.7045 18.8979 98.814 18.0732 100.105 17.738C101.455 17.3142 102.899 17.2857 104.265 17.6558C106.373 18.2033 107.605 19.8457 107.605 22.063V28.3862C107.605 29.5085 107.66 30.6308 108.07 31.671C108.095 31.712 108.105 31.7605 108.098 31.8079C108.125 31.7805 108.098 31.8353 108.098 31.9174ZM105.169 25.0467C104.129 25.0467 103.116 24.9919 102.13 25.074C101.433 25.1275 100.749 25.2939 100.105 25.5668C99.0919 25.9774 98.6813 26.7986 98.7361 27.8935C98.7908 28.8789 99.4204 29.618 100.406 29.9465C102.048 30.4666 104.156 29.6728 105.032 28.222C105.1 28.1235 105.147 28.0115 105.169 27.8935V25.0467Z" fill="black"/>
<path d="M92.8505 28.2768L94.3286 29.4265C93.6608 30.5214 92.6361 31.3528 91.4271 31.7806C89.9102 32.3223 88.2592 32.3607 86.7188 31.8901C85.7912 31.6282 84.9441 31.1376 84.2554 30.4633C83.5667 29.7889 83.0584 28.9524 82.7771 28.0304C82.036 25.874 82.0943 23.5231 82.9413 21.4061C83.7351 19.3804 85.1859 17.9844 87.321 17.5464C89.4835 17.1084 91.4544 17.5191 92.96 19.271C93.7235 20.211 94.1988 21.3517 94.3286 22.5558C94.4381 23.5138 94.4655 24.4719 94.5476 25.4847H84.8301C84.6658 26.9902 85.5144 28.9064 87.0473 29.7276C88.9361 30.713 90.9891 30.2203 92.8505 28.2768ZM92.084 23.4591C92.0868 22.5803 91.8704 21.7148 91.4544 20.9407C91.2643 20.5943 91.0064 20.2897 90.696 20.0452C90.3856 19.8006 90.0291 19.6211 89.6478 19.5173C86.8009 18.7782 85.0764 21.0776 84.9396 23.4591H92.084Z" fill="black"/>
<path d="M118.691 27.5374H120.963C121.007 27.5443 121.049 27.5633 121.083 27.5923C121.116 27.6213 121.141 27.6592 121.155 27.7016C121.483 29.2072 122.387 30.001 123.947 30.1652C124.771 30.2857 125.613 30.1817 126.383 29.8641C127.396 29.3988 127.834 28.5502 127.56 27.5374C127.49 27.2658 127.353 27.016 127.162 26.8105C126.971 26.605 126.731 26.4503 126.465 26.3603C125.726 26.0866 124.987 25.8676 124.221 25.6486C123.372 25.4023 122.524 25.1559 121.702 24.8822C121.406 24.7637 121.122 24.617 120.854 24.4442C118.637 23.1576 118.883 20.5572 120.005 19.2432C120.573 18.5567 121.322 18.0443 122.168 17.7651C123.787 17.1978 125.557 17.2367 127.15 17.8746C128.573 18.4494 129.559 19.4349 129.887 20.9951L129.969 21.57V21.8163H127.533C127.396 20.5298 126.602 19.8181 125.398 19.4896C124.76 19.3205 124.087 19.3299 123.454 19.517C123.11 19.6231 122.779 19.7701 122.469 19.955C121.429 20.6119 121.21 22.4733 122.77 23.0481C123.728 23.3766 124.714 23.623 125.672 23.8967C126.671 24.1413 127.63 24.5285 128.518 25.0464C130.708 26.4151 130.462 29.4262 128.929 30.7674C128.033 31.551 126.912 32.0302 125.726 32.1361C124.193 32.3277 122.688 32.2182 121.292 31.4791C119.896 30.7401 118.993 29.6451 118.746 28.0301C118.719 27.8659 118.719 27.729 118.691 27.5374Z" fill="black"/>
<path d="M74.9483 22.5283H72.6763C72.6216 22.282 72.5942 22.063 72.5394 21.844C72.0741 20.1468 70.4591 19.134 68.6524 19.4078C67.1195 19.6541 66.1614 20.5574 65.7235 21.9809C65.1671 23.79 65.1576 25.7231 65.6961 27.5377C66.6542 30.7403 70.2674 30.6856 71.7456 29.2348C72.2508 28.7583 72.5709 28.1182 72.6489 27.4282H74.9483C74.9313 28.0562 74.7521 28.6691 74.4282 29.2074C73.2238 31.2604 71.3624 32.1911 69.0356 32.1638C65.5318 32.109 63.4241 29.7002 62.9861 26.607C62.7398 24.8551 62.7671 23.1305 63.342 21.4334C64.3 18.7234 66.6815 17.1905 69.5557 17.3548C71.2803 17.4642 72.731 18.0665 73.8534 19.4078C74.555 20.2973 74.9403 21.3954 74.9483 22.5283Z" fill="black"/>
<path d="M149.377 11.6611H146.968V31.8901H149.377V11.6611Z" fill="black"/>
<path d="M79.7116 11.6611H77.3027V31.8901H79.7116V11.6611Z" fill="black"/>
<path d="M113.244 31.89H110.808V17.6558H113.189V19.1887C113.572 18.8055 113.873 18.4497 114.229 18.1486C115.16 17.4095 116.255 17.2452 117.432 17.4368C117.479 17.435 117.527 17.4445 117.57 17.4645C117.613 17.4844 117.651 17.5143 117.68 17.5517C117.71 17.5891 117.73 17.6329 117.739 17.6795C117.748 17.7262 117.746 17.7743 117.733 17.8201C117.706 18.477 117.733 19.1066 117.733 19.7636C117.131 19.7636 116.556 19.7362 116.009 19.7636C115.455 19.7839 114.917 19.9553 114.454 20.2593C113.991 20.5633 113.62 20.9882 113.381 21.4881C113.296 21.6781 113.25 21.8826 113.244 22.0903V31.89Z" fill="black"/>
</svg>
