<svg width="114" height="63" viewBox="0 0 114 63" fill="none" xmlns="http://www.w3.org/2000/svg">
<path d="M18 33.9277V30.7547H13.2018V23.9277H10V33.9277H18Z" fill="black"/>
<path d="M27 33.9277V30.7637H22.2045V30.0144H24.3344V27.8711H22.2045V27.0917H27V23.9277H19V33.9277H27Z" fill="black"/>
<path d="M23.7691 48.1179L21.2892 45.9277H19V54.9277H22.2339V50.8031L23.76 52.1559V54.9277H27V48.7956L23.7646 45.9399L23.7691 48.1179Z" fill="black"/>
<path d="M26.97 34.9562V34.9277H19V44.9277H27V34.9562H26.97ZM22.1925 41.7679V38.0936H23.8166V41.7679H22.1925Z" fill="black"/>
<path d="M17.97 45.9277H10V54.9277H18V45.9534H17.9654L17.97 45.9277ZM13.1925 52.0797V48.7744H14.8166V52.0797H13.1925Z" fill="black"/>
<path d="M15.7361 34.9277L14.0008 36.6532L12.2639 34.9277H10V44.9277H13.2018V41.9531V40.3448L14.0008 41.149L14.7982 40.3448V41.9531V44.9277H18V34.9277H15.7361Z" fill="black"/>
<path d="M31 58.9277H7V19.9277H31V58.9277ZM7.828 58.1074H30.178V20.7481H7.828V58.1074Z" fill="black"/>
<path d="M45 55.9277V19.9277" stroke="black"/>
<path d="M102.311 41.9277H95.6896C95.4995 41.9265 95.3127 41.8839 95.1414 41.8027C94.9696 41.7216 94.8179 41.6039 94.6961 41.4579C96.3576 38.1521 97.4671 34.5947 97.9795 30.9277H107C106.948 33.1169 106.461 35.2736 105.568 37.2716C104.965 38.6954 104.235 40.061 103.385 41.3513C103.268 41.5301 103.109 41.6765 102.921 41.7773C102.734 41.878 102.524 41.9297 102.311 41.9277ZM92.8868 38.2718C91.722 35.9952 91.0775 33.4862 91 30.9277H94.6297C94.3439 34.1822 92.9161 38.1115 92.9024 38.1511C92.9024 38.1511 92.8966 38.1931 92.8874 38.2704L92.8868 38.2718Z" fill="black"/>
<path d="M60.3139 49.2811C60.0952 49.2965 59.876 49.2599 59.6749 49.1743C59.4738 49.0888 59.2966 48.9569 59.1585 48.7899C58.8725 48.4084 58.7358 47.9386 58.7734 47.4664C58.7549 46.9775 58.8751 46.4932 59.1202 46.0672C59.2502 45.8887 59.4248 45.7462 59.6274 45.6534C59.8299 45.5607 60.0533 45.521 60.2762 45.538C60.6208 45.5568 60.9597 45.6335 61.278 45.7648L61.4708 45.1599C61.0904 45.0116 60.685 44.9342 60.2756 44.932C59.9588 44.9119 59.6414 44.9627 59.3475 45.0806C59.0536 45.1985 58.7908 45.3804 58.5789 45.6125C58.1782 46.1337 57.9744 46.7754 58.0026 47.4278C57.9862 48.067 58.1892 48.6931 58.5789 49.2055C58.7908 49.4268 59.0478 49.6019 59.3332 49.7191C59.6186 49.8364 59.926 49.8933 60.2353 49.886H60.2741C60.7005 49.8931 61.1226 49.8024 61.507 49.6211L61.353 48.9781C61.051 49.1906 60.685 49.2974 60.3139 49.2811ZM65.1681 44.932C64.8685 44.9121 64.5684 44.9636 64.2934 45.0821C64.0185 45.2006 63.7767 45.3826 63.5888 45.6125C63.1825 46.1309 62.9781 46.7746 63.0124 47.4278C62.9781 48.081 63.1825 48.7247 63.5888 49.2431C63.7739 49.4761 64.0152 49.6602 64.2909 49.7787C64.5667 49.8971 64.8682 49.9462 65.1681 49.9215C65.4677 49.9414 65.7678 49.8899 66.0428 49.7714C66.3178 49.6529 66.5595 49.471 66.7474 49.241C67.1537 48.7227 67.3582 48.0789 67.3238 47.4257C67.3582 46.7726 67.1537 46.1288 66.7474 45.6105C66.5511 45.3906 66.3078 45.2157 66.0348 45.0984C65.7619 44.9812 65.466 44.9243 65.1681 44.932ZM66.17 48.7899C66.056 48.9544 65.8998 49.0864 65.7172 49.1728C65.5346 49.2591 65.332 49.2966 65.1299 49.2816C64.9296 49.2841 64.7315 49.2409 64.551 49.1556C64.3705 49.0703 64.2126 48.9451 64.0897 48.7899C63.8578 48.3876 63.7507 47.9276 63.7816 47.4664C63.7518 47.0003 63.8732 46.5369 64.1285 46.1429C64.2426 45.9787 64.3988 45.8468 64.5813 45.7607C64.7638 45.6746 64.9662 45.6371 65.1681 45.6522C65.3684 45.6497 65.5665 45.6929 65.747 45.7782C65.9275 45.8635 66.0853 45.9887 66.2083 46.1439C66.4536 46.5421 66.5742 47.0024 66.5551 47.4674C66.5564 47.9351 66.4227 48.3937 66.1694 48.7899H66.17ZM71.4096 47.6933C71.7018 47.6538 71.9729 47.5209 72.1804 47.3151C72.2946 47.1942 72.3815 47.0507 72.4347 46.8941C72.488 46.7374 72.5062 46.5714 72.488 46.4073C72.5041 46.2088 72.4663 46.0098 72.378 45.8305C72.2897 45.6512 72.1551 45.4979 71.9877 45.3862C71.5595 45.1314 71.0613 45.0124 70.5624 45.0457H69.2905V49.8485H70.0242V47.9196H70.4482C70.5981 47.9112 70.7467 47.9512 70.8714 48.0333C71.0038 48.1334 71.1089 48.263 71.1797 48.4113L71.9498 49.8104H72.7592L71.9891 48.3357C71.8818 48.0592 71.6751 47.8306 71.4089 47.6927L71.4096 47.6933ZM70.5624 47.3151H70.0221V45.6522H70.5617C70.87 45.6203 71.1804 45.6866 71.4474 45.8415C71.5546 45.9098 71.6408 46.0062 71.6948 46.1198C71.7494 46.2334 71.7704 46.3597 71.7557 46.4844C71.762 46.6081 71.7368 46.7315 71.6835 46.8436C71.6296 46.9558 71.549 47.0532 71.4474 47.1274C71.1804 47.2815 70.87 47.3471 70.5617 47.3146L70.5624 47.3151ZM77.4583 45.4633C77.0308 45.1697 76.5158 45.0234 75.9944 45.0472H74.6841V49.85H75.4177V48.2241H75.9944C76.5172 48.2604 77.0364 48.1129 77.4583 47.8079C77.6383 47.6617 77.7813 47.476 77.8745 47.2658C77.9684 47.0556 78.0104 46.8267 77.9978 46.5976C78.0062 46.3796 77.9621 46.1627 77.8682 45.965C77.7743 45.7674 77.6334 45.5946 77.4576 45.4614L77.4583 45.4633ZM76.9187 47.3522C76.6419 47.5207 76.3189 47.6001 75.9937 47.579H75.417V45.6125H75.9937C76.3182 45.597 76.6398 45.6761 76.9187 45.8399C77.0315 45.9296 77.1191 46.0462 77.1731 46.1786C77.227 46.311 77.2452 46.4547 77.227 46.596C77.2263 46.9741 77.1492 47.239 76.9187 47.3522Z" fill="black"/>
<path d="M85 32.9277H86.8698C87.1537 34.2832 87.531 35.6195 88 36.9277C87.5104 35.6254 87.1323 34.2877 86.8698 32.9277H85Z" fill="black"/>
<path d="M90 45.9277C90.3657 45.281 90.6998 44.6134 91 43.9277C90.7259 44.6276 90.3905 45.2973 90 45.9277Z" fill="black"/>
<path d="M92 42.9277C91.6257 43.2612 91.3117 43.5943 91 43.9277C91.3129 43.5642 91.6883 43.2307 92 42.9277Z" fill="black"/>
<path d="M96.3338 34.2084C96.8154 32.2253 97 30.9277 97 30.9277H94.6295C94.449 32.2249 94.2017 33.5125 93.8885 34.7856C93.8515 34.894 93.8515 35.0019 93.8144 35.074C93.481 36.2999 93.0741 37.5975 92.5925 38.8955C92.4072 39.3644 92.259 39.7969 92.0387 40.3015L91.9646 40.2294L91.9269 40.1931C91.3132 39.1964 90.7689 38.1605 90.2974 37.0924C90.2833 37.0782 90.2732 37.0611 90.2664 37.0423C90.2597 37.0236 90.2577 37.0036 90.2604 36.984C90.1694 36.7857 90.0953 36.5807 90.0374 36.371C89.3954 34.637 88.9724 32.8333 88.7777 30.9998V30.964H85V32.803H86.5925C86.8343 33.9881 87.1556 35.1565 87.5551 36.3004C88.2927 38.3297 89.3415 40.2384 90.6666 41.9614C90.7204 42.0507 90.7966 42.1251 90.8889 42.1777L91 42.2861L91.1111 42.3944C90.8888 42.7912 90.7036 43.1874 90.519 43.5841C90.4732 43.7188 90.3971 43.8419 90.2967 43.9446C89.9633 44.5934 89.5914 45.2784 89.1852 45.9277H91.2964C91.778 45.2412 92.2226 44.4855 92.6302 43.7646C93.0943 42.9453 93.5147 42.1029 93.8892 41.241C94.3708 40.1596 94.7784 39.1135 95.1111 38.1026C95.1684 37.8929 95.2432 37.6879 95.3334 37.4896C95.3685 37.2851 95.4439 37.0892 95.5557 36.9129C95.741 36.3362 95.8892 35.759 96.0374 35.2545C96.1108 34.9298 96.2226 34.6056 96.2967 34.3168C96.3338 34.2447 96.3338 34.2447 96.3338 34.2084Z" fill="black"/>
<path d="M89.5 49.9277C90.3284 49.9277 91 49.2562 91 48.4278C91 47.5993 90.3284 46.9277 89.5 46.9277C88.6716 46.9277 88 47.5993 88 48.4278C88 49.2562 88.6716 49.9277 89.5 49.9277Z" fill="black"/>
<path d="M103 49.9277C103.552 49.9277 104 49.2562 104 48.4278C104 47.5993 103.552 46.9277 103 46.9277C102.448 46.9277 102 47.5993 102 48.4278C102 49.2562 102.448 49.9277 103 49.9277Z" fill="black"/>
<path d="M62.9406 42.9277C60.3269 42.9277 58.8218 41.6715 58.8218 38.79V32.6935H57V30.7724H58.8218V28.0388L61.3962 27.9277V30.7724H64.5647V32.6935H61.3962V38.7529C61.3962 40.3046 62.1089 40.9328 63.3764 40.9328C63.8727 40.9517 64.3687 40.8891 64.8417 40.7478L65 42.6689C64.3283 42.8374 63.6362 42.9243 62.9406 42.9277Z" fill="black"/>
<path d="M72.211 30.9328C72.8137 30.9087 73.4171 30.9704 74 31.1158L73.6499 33.0906C73.2466 32.9735 72.8272 32.9118 72.4056 32.9075C71.4103 32.8868 70.4242 33.0872 69.5272 33.4924V42.9277H67V32.0301C68.6253 31.2959 70.4079 30.9206 72.211 30.9328Z" fill="black"/>
<path d="M79.4297 42.922C76.4766 42.922 75 41.4938 75 39.4946C75 37.1385 76.8647 35.9959 79.4297 35.9959C80.222 35.9851 81.013 36.0691 81.7855 36.246V35.2836C81.7855 33.7127 80.9068 32.8556 79.1835 32.8556C78.1616 32.8555 77.148 33.0492 76.1952 33.4266L75.7386 31.6076C76.9056 31.1539 78.1449 30.9234 79.3945 30.9278C82.4883 30.9278 84 32.5701 84 35.3904V41.8882C82.588 42.6221 81.0149 42.978 79.4297 42.922ZM81.7855 40.7441V37.782C81.0987 37.5901 80.3889 37.494 79.6765 37.4964C78.2696 37.4964 77.2503 37.9961 77.2503 39.3903C77.2503 40.6043 78.129 41.2112 79.6062 41.2112C80.3601 41.2498 81.1108 41.0893 81.7855 40.7456V40.7441Z" fill="black"/>
<path d="M6.84375 7.92773V0.10742H8.70745C9.62055 0.10742 10.3295 0.39388 10.8344 0.96679C11.3393 1.53613 11.5918 2.33821 11.5918 3.37304V4.68359C11.5918 5.71843 11.3358 6.51873 10.8237 7.08443C10.3117 7.64663 9.56865 7.92773 8.59465 7.92773H6.84375ZM7.82665 0.95605V7.08443H8.61615C9.30725 7.08443 9.81215 6.88753 10.1309 6.49363C10.4496 6.09623 10.6124 5.50893 10.6195 4.73193V3.34619C10.6195 2.52262 10.4603 1.91927 10.1416 1.53613C9.82645 1.14941 9.34845 0.95605 8.70745 0.95605H7.82665ZM16.8769 4.31298H14.1109V7.08443H17.3335V7.92773H13.1278V0.10742H17.2798V0.95605H14.1109V3.46972H16.8769V4.31298ZM22.0117 5.95113C22.0117 5.56083 21.9061 5.26183 21.6948 5.05423C21.4836 4.84651 21.1022 4.6442 20.5508 4.44726C19.9994 4.25032 19.5767 4.04443 19.2831 3.82959C18.9931 3.61116 18.7747 3.36409 18.6278 3.08837C18.4846 2.80908 18.4131 2.49039 18.4131 2.13232C18.4131 1.51285 18.6189 1.0026 19.0308 0.60156C19.4461 0.20052 19.9886 0 20.6581 0C21.1164 0 21.5248 0.10384 21.8828 0.31152C22.2409 0.51562 22.5165 0.80029 22.7099 1.16552C22.9032 1.53076 23 1.9318 23 2.36865H22.0117C22.0117 1.88525 21.8954 1.51106 21.6626 1.24609C21.4299 0.98112 21.095 0.84863 20.6581 0.84863C20.2607 0.84863 19.9527 0.95963 19.7343 1.18164C19.5159 1.40364 19.4067 1.71516 19.4067 2.11621C19.4067 2.44563 19.5248 2.72135 19.7612 2.94335C19.9976 3.16536 20.3628 3.36409 20.8568 3.53955C21.6267 3.79378 22.1764 4.10709 22.5059 4.47949C22.8389 4.85188 23.0054 5.33883 23.0054 5.94043C23.0054 6.57423 22.7994 7.08263 22.3876 7.46583C21.9758 7.84533 21.4155 8.03513 20.7066 8.03513C20.2518 8.03513 19.8311 7.93673 19.4443 7.73973C19.0612 7.53923 18.7585 7.25993 18.5365 6.90183C18.3181 6.54023 18.209 6.12663 18.209 5.66113H19.1973C19.1973 6.14453 19.3316 6.52053 19.6001 6.78903C19.8722 7.05763 20.2411 7.19193 20.7066 7.19193C21.1398 7.19193 21.4657 7.08093 21.6841 6.85893C21.9025 6.63683 22.0117 6.33433 22.0117 5.95113ZM25.3256 7.92773H24.3428V0.10742H25.3256V7.92773ZM31.9429 6.95553L31.771 7.17043C31.2768 7.74693 30.5536 8.03513 29.6011 8.03513C28.756 8.03513 28.0917 7.75583 27.6083 7.19723C27.1285 6.63513 26.8833 5.84193 26.8726 4.81787V3.28173C26.8726 2.18603 27.091 1.36604 27.5278 0.82177C27.9683 0.27392 28.6253 0 29.499 0C30.2438 0 30.8256 0.20768 31.2445 0.62304C31.6671 1.03841 31.8999 1.63102 31.9429 2.40087H30.9599C30.9205 1.9139 30.7845 1.53434 30.5518 1.2622C30.3225 0.98649 29.9734 0.84863 29.5043 0.84863C28.9421 0.84863 28.5303 1.03304 28.2691 1.40185C28.0077 1.76709 27.8716 2.35253 27.8609 3.1582V4.75341C27.8609 5.54113 28.0112 6.14633 28.312 6.56883C28.6128 6.98783 29.0442 7.19723 29.6064 7.19723C30.1363 7.19723 30.5391 7.06833 30.8149 6.81053L30.9599 6.67623V4.87158H29.5312V4.03369H31.9429V6.95553ZM38.6566 7.92773H37.6684L34.537 1.90136V7.92773H33.5488V0.10742H34.537L37.6791 6.16063V0.10742H38.6566V7.92773ZM46.6328 4.31298H43.8667V7.08443H47.0893V7.92773H42.8838V0.10742H47.0357V0.95605H43.8667V3.46972H46.6328V4.31298ZM55.2318 0.95605H53.1748V7.92773H52.1918V0.95605H50.1401V0.10742H55.2318V0.95605ZM60.1357 4.31298H57.3696V7.08443H60.5922V7.92773H56.3867V0.10742H60.5386V0.95605H57.3696V3.46972H60.1357V4.31298ZM66.7582 5.44633C66.7152 6.28413 66.4789 6.92513 66.0492 7.36913C65.6231 7.81313 65.0199 8.03513 64.2393 8.03513C63.4551 8.03513 62.8319 7.73793 62.37 7.14353C61.9081 6.54553 61.6773 5.73633 61.6773 4.71582V3.29785C61.6773 2.28092 61.9135 1.47705 62.3861 0.88623C62.8624 0.29541 63.5106 0 64.3306 0C65.0861 0 65.6698 0.22737 66.0816 0.68212C66.4968 1.1333 66.7224 1.77962 66.7582 2.62109H65.7646C65.7216 1.98372 65.5873 1.52897 65.3617 1.25683C65.1361 0.9847 64.7924 0.84863 64.3306 0.84863C63.797 0.84863 63.387 1.0581 63.1005 1.47705C62.814 1.89241 62.6709 2.50293 62.6709 3.30859V4.74267C62.6709 5.53403 62.8034 6.14093 63.0684 6.56343C63.3369 6.98603 63.7271 7.19723 64.2393 7.19723C64.7513 7.19723 65.12 7.07013 65.3456 6.81593C65.5713 6.56173 65.7108 6.10513 65.7646 5.44633H66.7582ZM73.2036 7.92773H72.2152L69.084 1.90136V7.92773H68.0956V0.10742H69.084L72.2261 6.16063V0.10742H73.2036V7.92773ZM79.9924 4.70507C79.9924 5.77213 79.7654 6.59393 79.3104 7.17043C78.8554 7.74693 78.2094 8.03513 77.3715 8.03513C76.5655 8.03513 75.9285 7.75583 75.4594 7.19723C74.9934 6.63513 74.7524 5.84193 74.7345 4.81787V3.34619C74.7345 2.30061 74.9655 1.48242 75.4275 0.8916C75.8895 0.2972 76.5334 0 77.3605 0C78.1844 0 78.8254 0.28466 79.2834 0.854C79.7454 1.41975 79.9814 2.229 79.9924 3.28173V4.70507ZM79.0095 3.33544C79.0095 2.5083 78.8735 1.8942 78.6014 1.49316C78.3335 1.08854 77.9194 0.88623 77.3605 0.88623C76.8204 0.88623 76.4104 1.09033 76.1304 1.49853C75.8554 1.90673 75.7154 2.5083 75.7114 3.30322V4.70507C75.7114 5.50353 75.8494 6.11233 76.1255 6.53123C76.4044 6.95023 76.8204 7.15963 77.3715 7.15963C77.9235 7.15963 78.3315 6.96633 78.5965 6.57963C78.8615 6.19283 78.9995 5.60023 79.0095 4.80175V3.33544ZM82.5005 7.08443H85.5675V7.92773H81.5125V0.10742H82.5005V7.08443ZM91.4764 4.70507C91.4764 5.77213 91.2485 6.59393 90.7934 7.17043C90.3394 7.74693 89.6924 8.03513 88.8544 8.03513C88.0494 8.03513 87.4115 7.75583 86.9425 7.19723C86.4775 6.63513 86.2355 5.84193 86.2175 4.81787V3.34619C86.2175 2.30061 86.4485 1.48242 86.9105 0.8916C87.3725 0.2972 88.0174 0 88.8445 0C89.6674 0 90.3084 0.28466 90.7674 0.854C91.2294 1.41975 91.4654 2.229 91.4764 3.28173V4.70507ZM90.4934 3.33544C90.4934 2.5083 90.3575 1.8942 90.0844 1.49316C89.8165 1.08854 89.4025 0.88623 88.8445 0.88623C88.3035 0.88623 87.8934 1.09033 87.6144 1.49853C87.3384 1.90673 87.1984 2.5083 87.1954 3.30322V4.70507C87.1954 5.50353 87.3335 6.11233 87.6085 6.53123C87.8885 6.95023 88.3034 7.15963 88.8544 7.15963C89.4064 7.15963 89.8145 6.96633 90.0795 6.57963C90.3445 6.19283 90.4824 5.60023 90.4934 4.80175V3.33544ZM97.8895 6.95553L97.7175 7.17043C97.2234 7.74693 96.4995 8.03513 95.5474 8.03513C94.7024 8.03513 94.0385 7.75583 93.5545 7.19723C93.0744 6.63513 92.8295 5.84193 92.8185 4.81787V3.28173C92.8185 2.18603 93.0375 1.36604 93.4744 0.82177C93.9145 0.27392 94.5714 0 95.4454 0C96.1905 0 96.7715 0.20768 97.1905 0.62304C97.6134 1.03841 97.8465 1.63102 97.8895 2.40087H96.9064C96.8664 1.9139 96.7305 1.53434 96.4985 1.2622C96.2684 0.98649 95.9194 0.84863 95.4504 0.84863C94.8885 0.84863 94.4764 1.03304 94.2154 1.40185C93.9534 1.76709 93.8175 2.35253 93.8074 3.1582V4.75341C93.8074 5.54113 93.9575 6.14633 94.2585 6.56883C94.5595 6.98783 94.9905 7.19723 95.5525 7.19723C96.0825 7.19723 96.4855 7.06833 96.7615 6.81053L96.9064 6.67623V4.87158H95.4774V4.03369H97.8895V6.95553ZM100.521 7.92773H99.5385V0.10742H100.521V7.92773ZM105.892 5.88673H103.249L102.642 7.92773H101.632L104.151 0.10742H104.995L107.519 7.92773H106.509L105.892 5.88673ZM103.507 5.03813H105.639L104.57 1.48242L103.507 5.03813Z" fill="black"/>
<path d="M106.59 16.9277H7.40964C3.86969 16.9277 1 19.7844 1 23.3083V55.5471C1 59.071 3.86969 61.9277 7.40964 61.9277H106.59C110.13 61.9277 113 59.071 113 55.5471V23.3083C113 19.7844 110.13 16.9277 106.59 16.9277Z" stroke="black"/>
</svg>
