<svg width="196" height="196" viewBox="0 0 196 196" fill="none" xmlns="http://www.w3.org/2000/svg">
<rect width="195.938" height="195.938" fill="white"/>
<path d="M114.881 109.349L92.8247 71.0175L108.67 61.9163L136.097 109.349H114.881Z" fill="#ABABAB"/>
<path d="M56.1323 103.979L71.9775 94.8162L80.3613 109.349H59.2071L56.1323 103.979Z" fill="#ABABAB"/>
<path d="M87.2285 133.804H91.7381V115.561H87.2285V133.804Z" fill="#ABABAB"/>
<path d="M143.742 134.234C138.7 134.234 135.666 131.631 135.502 127.962H140.258C140.258 129.11 140.975 130.791 144.05 130.852C146.1 130.852 147.063 129.643 147.063 128.741C146.94 127.306 145.136 127.183 143.209 126.876C141.282 126.568 139.643 126.22 138.454 125.605C136.937 124.826 135.912 123.145 135.912 121.218C135.912 117.959 138.741 115.376 143.455 115.376C148.026 115.376 150.917 117.774 151.224 121.341H146.633C146.592 120.378 146.407 118.861 143.701 118.861C141.877 118.861 140.668 119.23 140.565 120.501C140.565 122.366 144.357 122.243 147.309 123.022C150.138 123.739 151.942 125.502 151.942 127.962C151.942 132.492 148.272 134.234 143.742 134.234Z" fill="#ABABAB"/>
<path d="M74.7036 87.7033L90.5488 78.561L108.321 109.349H91.7377V113.859H87.2281V109.329L74.7036 87.7033Z" fill="#ABABAB"/>
<path fill-rule="evenodd" clip-rule="evenodd" d="M75.1138 134.234C69.8662 134.234 65.6025 129.95 65.6025 124.764C65.6025 119.517 69.8662 115.376 75.1138 115.376C77.1021 115.376 78.9059 115.909 80.4843 116.995V109.349H84.9939V133.804H80.4843V132.594C78.9059 133.619 77.1021 134.234 75.1138 134.234ZM69.9277 124.764C69.9277 127.593 72.3465 129.95 75.2367 129.95C78.0655 129.95 80.4843 127.593 80.4843 124.764C80.4843 121.935 78.0655 119.517 75.2367 119.517C72.3465 119.517 69.9277 121.935 69.9277 124.764Z" fill="#ABABAB"/>
<path fill-rule="evenodd" clip-rule="evenodd" d="M108.444 109.349H112.892V133.804H108.444V132.594C106.927 133.619 105.062 134.234 103.012 134.234C97.8261 134.234 93.5625 129.95 93.5625 124.764C93.5625 119.517 97.8261 115.376 103.012 115.376C105.062 115.376 106.866 115.909 108.444 116.995V109.349ZM97.9491 124.764C97.9491 127.593 100.368 129.95 103.135 129.95C106.025 129.95 108.444 127.593 108.444 124.764C108.444 121.935 106.025 119.517 103.135 119.517C100.368 119.517 97.9491 121.935 97.9491 124.764Z" fill="#ABABAB"/>
<path fill-rule="evenodd" clip-rule="evenodd" d="M123.859 134.234C118.693 134.234 114.409 129.95 114.409 124.764C114.409 119.517 118.693 115.376 123.859 115.376C125.847 115.376 127.713 115.909 129.229 116.995V115.54H133.739V133.804H129.229V132.595C127.713 133.619 125.909 134.234 123.859 134.234ZM118.796 124.764C118.796 127.593 121.215 129.95 124.043 129.95C126.872 129.95 129.229 127.593 129.229 124.764C129.229 121.935 126.872 119.517 124.043 119.517C121.215 119.517 118.796 121.935 118.796 124.764Z" fill="#ABABAB"/>
<path fill-rule="evenodd" clip-rule="evenodd" d="M49.0195 124.764C49.0195 127.593 51.4383 129.95 54.267 129.95C57.1573 129.95 59.5761 127.593 59.5761 124.764C59.5761 121.935 57.1573 119.517 54.267 119.517C51.4383 119.517 49.0195 121.935 49.0195 124.764ZM54.144 134.234C48.958 134.234 44.6738 129.95 44.6738 124.764C44.6738 119.517 48.958 115.376 54.144 115.376C56.1324 115.376 57.9977 115.909 59.5761 116.995V115.54H64.0242V133.804H59.5761V132.595C58.0592 133.619 56.1939 134.234 54.144 134.234Z" fill="#ABABAB"/>
</svg>
