<svg width="196" height="196" viewBox="0 0 196 196" fill="none" xmlns="http://www.w3.org/2000/svg">
<rect width="195.938" height="195.938" fill="white"/>
<path d="M40.6365 87.2701C40.7298 87.1928 48.7504 83.0774 48.8077 83.0774C48.8402 83.0774 48.8668 84.0294 48.8668 85.193V87.3085H44.7284C42.4523 87.3085 40.611 87.2912 40.6365 87.2701Z" fill="#ABABAB" stroke="#ABABAB" stroke-width="0.590909"/>
<path d="M41.1279 100.779V89.7561L44.7745 89.7561L48.421 89.7561V91.2593V92.7624H46.6395H44.858V95.7741V98.7857L46.6397 98.7526L48.4214 98.7194L48.4214 100.334L48.4214 101.948L46.6397 101.913L44.858 101.877V105.347V108.816L46.6396 108.778L48.4213 108.74L48.4211 110.271L48.421 111.802L44.7745 111.802L41.1279 111.802V100.779Z" fill="#ABABAB" stroke="#ABABAB" stroke-width="0.590909"/>
<path d="M24.3065 111.606C24.5698 110.776 27.5197 91.1666 27.5054 90.3407L27.4953 89.7561H30.7221H33.9489L33.8816 90.1766C33.8446 90.4078 33.8705 90.8964 33.9391 91.2622C34.0077 91.628 34.6636 96.2865 35.3967 101.614C36.1297 106.942 36.7786 111.414 36.8386 111.552L36.9478 111.802H34.8013H32.6548L32.6885 111.441C32.7071 111.242 32.6089 109.976 32.4704 108.629L32.2186 106.18L30.5299 106.149C28.9927 106.121 28.836 106.136 28.7839 106.316C28.7525 106.425 28.6129 107.704 28.4739 109.158L28.221 111.802H26.2326C24.3842 111.802 24.2486 111.789 24.3065 111.606ZM31.9077 101.921C31.8731 101.691 31.6581 99.7626 31.4298 97.6355C31.0511 94.1061 30.9959 93.762 30.7991 93.6995C30.6805 93.6619 30.5379 93.6766 30.4822 93.7323C30.4265 93.788 30.1314 95.6093 29.8264 97.7797C29.5214 99.95 29.2476 101.864 29.2179 102.032L29.1639 102.338H30.5672H31.9705L31.9077 101.921Z" fill="#ABABAB" stroke="#ABABAB" stroke-width="0.590909"/>
<path d="M53.042 100.774V89.7454L56.7721 89.7786C60.3979 89.8109 60.5153 89.8188 60.9723 90.063C61.677 90.4396 62.1832 90.9301 62.4701 91.5147C62.7078 91.999 62.7303 92.2086 62.7673 94.2841C62.8071 96.5191 62.677 98.4211 62.4274 99.2543C62.258 99.8196 61.774 100.298 61.2201 100.447C60.8397 100.549 60.7805 100.608 60.7805 100.88C60.7805 101.163 60.8259 101.201 61.2172 101.254C62.0728 101.369 62.465 101.901 62.6708 103.229C62.7326 103.627 62.7834 105.719 62.7839 107.878L62.7847 111.802H61.1254H59.4661L59.3164 111.441C59.2008 111.161 59.1667 110.19 59.1664 107.177C59.166 103.637 59.1478 103.247 58.9696 102.975C58.6592 102.501 58.3373 102.357 57.4088 102.273L56.5424 102.195L56.5737 106.999L56.605 111.803L54.8235 111.803L53.042 111.802L53.042 100.774ZM59.0145 98.5622C59.277 98.3497 59.2774 98.3458 59.2774 95.7817C59.2774 92.5487 59.3813 92.7229 57.468 92.7496L56.5494 92.7624V95.7688V98.7751H57.6505C58.5688 98.7751 58.7953 98.7397 59.0145 98.5622Z" fill="#ABABAB" stroke="#ABABAB" stroke-width="0.590909"/>
<path d="M70.9683 112.009C69.7318 111.819 68.7808 111.33 67.9797 110.474C66.9523 109.375 67.0205 110.052 67.0205 100.946C67.0205 93.1299 67.0261 92.9169 67.2463 92.4315C68.1895 90.3522 70.9613 89.1765 73.414 89.8154C74.3766 90.0661 75.1136 90.5011 75.8809 91.2713C77.009 92.4037 76.9372 91.7151 76.9011 101.058C76.8708 108.887 76.8616 109.202 76.6502 109.631C76.3483 110.244 75.5102 111.058 74.8226 111.406C73.777 111.936 72.1473 112.191 70.9683 112.009ZM72.6526 108.058C72.8625 107.959 73.1331 107.751 73.2539 107.598C73.4671 107.327 73.4736 107.119 73.4736 100.587C73.4736 94.4524 73.4568 93.8261 73.2845 93.5343C72.8205 92.7489 71.125 92.8495 70.8132 93.681C70.7615 93.8188 70.7001 96.9463 70.6768 100.631C70.6346 107.289 70.6357 107.333 70.8674 107.646C71.0931 107.951 71.6422 108.22 72.065 108.233C72.1782 108.237 72.4426 108.158 72.6526 108.058Z" fill="#ABABAB" stroke="#ABABAB" stroke-width="0.590909"/>
<path d="M81.8245 100.995C81.8245 93.4188 81.7883 90.1193 81.7034 89.9606C81.5824 89.7346 81.5882 89.7343 85.4056 89.7861C89.4644 89.8411 89.9342 89.8968 90.786 90.4232C91.0024 90.557 91.3152 90.898 91.4811 91.1811L91.7828 91.6958L91.8275 96.2244C91.8768 101.215 91.8453 101.512 91.191 102.212C90.7466 102.688 89.6241 103.002 88.1186 103.07C87.4433 103.101 86.5776 103.154 86.1948 103.187L85.4989 103.247V107.525V111.803H83.6617H81.8245V100.995ZM87.876 99.6802C88.0384 99.5452 88.0599 99.1841 88.0599 96.5853V93.6432L87.7866 93.3699C87.5367 93.12 87.427 93.0966 86.5061 93.0966H85.4989V96.5031V99.9096L86.5956 99.8713C87.3116 99.8463 87.756 99.78 87.876 99.6802Z" fill="#ABABAB" stroke="#ABABAB" stroke-width="0.590909"/>
<path d="M100.215 111.963C98.5453 111.658 96.9561 110.574 96.5812 109.483C96.3026 108.672 96.2837 107.786 96.3791 99.9999L96.4684 92.7068L96.793 92.1195C98.1076 89.741 101.67 88.9555 104.26 90.4732C104.888 90.8415 105.833 91.7979 106.115 92.3508C106.443 92.9933 106.457 93.5383 106.354 101.948L106.265 109.186L105.897 109.823C105.217 111 103.999 111.775 102.458 112.013C101.497 112.161 101.273 112.156 100.215 111.963ZM102.103 108.01C102.889 107.609 102.869 107.798 102.869 100.699C102.868 96.6052 102.827 94.2278 102.75 93.9536C102.541 93.2008 101.6 92.8793 100.703 93.2541C100.496 93.3408 100.272 93.5128 100.206 93.6365C100.123 93.7905 100.086 96.006 100.086 100.671C100.086 106.86 100.103 107.51 100.273 107.799C100.552 108.271 101.4 108.369 102.103 108.01Z" fill="#ABABAB" stroke="#ABABAB" stroke-width="0.590909"/>
<path d="M114.382 111.867C113.078 111.569 111.876 110.753 111.457 109.881C111.254 109.459 111.227 109.155 111.197 107.042L111.164 104.676L112.946 104.676L114.727 104.676L114.692 105.921C114.652 107.324 114.814 107.961 115.308 108.35C115.881 108.8 116.812 108.513 117.248 107.751C117.489 107.329 117.513 107.146 117.549 105.394C117.593 103.25 117.5 102.832 116.9 102.467C116.71 102.351 115.453 101.99 114.108 101.663C112.539 101.283 111.581 100.996 111.44 100.865C111.228 100.667 111.22 100.501 111.22 96.4837C111.22 91.723 111.188 91.9031 112.194 90.9623C112.898 90.3034 113.208 90.1484 114.253 89.9325C117.235 89.3166 120.117 90.2039 120.884 91.9749C121.004 92.2507 121.077 92.9106 121.121 94.1266L121.185 95.8805L119.348 95.8805L117.511 95.8806L117.547 94.8655C117.59 93.6475 117.456 93.2435 116.938 93.0271C116.025 92.6453 115.123 93.0124 114.903 93.8562C114.844 94.0814 114.761 95.0305 114.718 95.9654C114.649 97.4668 114.662 97.6892 114.826 97.8707C115.114 98.189 115.679 98.3908 117.845 98.9489C120.428 99.6145 120.396 99.6011 120.806 100.207L121.155 100.724L121.082 104.997C121.001 109.771 121.007 109.733 120.206 110.559C119.333 111.459 118.126 111.888 116.23 111.972C115.453 112.006 114.833 111.971 114.382 111.867Z" fill="#ABABAB" stroke="#ABABAB" stroke-width="0.590909"/>
<path d="M126.71 107.766C126.748 105.485 126.785 101.173 126.794 98.1833L126.808 92.7481L125.639 92.7831L124.47 92.8181L124.47 91.3428L124.47 89.8674H128.646H132.821V91.3436V92.8197L131.538 92.7789L130.254 92.7382L130.285 102.326L130.316 111.914L128.479 111.914L126.641 111.914L126.71 107.766Z" fill="#ABABAB" stroke="#ABABAB" stroke-width="0.590909"/>
<path d="M134.986 111.723C135.248 111.04 138.289 90.6412 138.199 90.1736L138.14 89.8674H141.383H144.626L144.557 90.2994C144.519 90.5371 144.54 90.9755 144.604 91.2737C144.668 91.572 145.326 96.2252 146.065 101.614C146.805 107.003 147.459 111.525 147.518 111.663L147.625 111.914H145.534H143.444L143.171 109.102L142.898 106.291L141.203 106.26C139.518 106.23 139.507 106.231 139.453 106.483C139.423 106.622 139.288 107.901 139.152 109.325L138.905 111.914H136.909C135.069 111.914 134.918 111.899 134.986 111.723ZM142.619 102.459C142.619 102.403 142.419 100.494 142.174 98.2183C141.929 95.9423 141.729 94.0091 141.729 93.9223C141.729 93.8219 141.61 93.7645 141.401 93.7645C141.102 93.7645 141.068 93.804 141.005 94.2377C140.495 97.7437 139.877 102.412 139.913 102.477C139.981 102.598 142.619 102.58 142.619 102.459Z" fill="#ABABAB" stroke="#ABABAB" stroke-width="0.590909"/>
<path d="M151.465 111.552C151.498 111.353 151.538 106.393 151.553 100.529L151.582 89.868L153.459 89.8677C155.209 89.8674 155.33 89.8806 155.241 90.0622C155.188 90.1694 155.132 94.3811 155.116 99.4216L155.087 108.586L157.371 108.552L159.655 108.518L159.655 110.216L159.655 111.914H155.53H151.405L151.465 111.552Z" fill="#ABABAB" stroke="#ABABAB" stroke-width="0.590909"/>
<path d="M163.719 100.891V89.8674L167.366 89.8674L171.012 89.8674L171.013 91.3984L171.013 92.9294L169.231 92.8963L167.449 92.8631V94.0198C167.449 94.6559 167.416 96.0112 167.376 97.0314L167.303 98.8864H169.158H171.012V100.554V102.221L170.727 102.113C170.57 102.053 169.743 102.004 168.89 102.004H167.338V105.463V108.923L169.12 108.887L170.901 108.852L170.901 110.383L170.901 111.914L167.31 111.914L163.719 111.914V100.891Z" fill="#008000" stroke="#008000" stroke-width="0.590909"/>
<path d="M163.664 100.893V89.8694H167.338H171.012V91.3858V92.9023L169.244 92.8573L167.475 92.8123L167.408 94.0966C167.371 94.803 167.342 95.857 167.345 96.4388C167.347 97.0205 167.316 97.8097 167.275 98.1924L167.201 98.8884H169.107H171.012L171.012 100.475L171.012 102.062L169.175 102.023L167.338 101.984V105.492V109L168.479 108.952C169.107 108.926 169.909 108.885 170.261 108.862L170.901 108.819V110.367V111.916H167.282H163.664V100.893Z" fill="#ABABAB" stroke="#ABABAB" stroke-width="0.590909"/>
</svg>
