<svg width="196" height="196" viewBox="0 0 196 196" fill="none" xmlns="http://www.w3.org/2000/svg">
<rect width="195.938" height="195.938" fill="white"/>
<path d="M29.5723 108.631C23.8707 108.631 19.0045 103.458 19.0045 97.8188C19.0045 92.199 23.7697 86.9251 29.5317 86.9251C33.3191 86.9251 36.0475 88.7575 38.2671 91.6282H41.0567C40.2219 90.1217 39.326 88.7369 37.9618 87.658C35.6198 85.7644 32.5861 84.645 29.5723 84.645C22.3442 84.6443 16.459 90.6106 16.459 97.7981C16.459 105.006 22.4253 110.911 29.6128 110.911C32.5448 110.911 35.4155 109.832 37.7169 108.02C39.1622 106.859 40.1806 105.353 41.1577 103.806H38.368C36.1699 106.676 33.3596 108.631 29.5723 108.631Z" fill="#ABABAB"/>
<path d="M58.4862 94.8862C56.7356 92.6261 54.353 91.2014 51.4005 91.2014C46.1066 91.2014 41.7485 95.4975 41.7485 100.792C41.7485 106.087 46.1265 110.423 51.4005 110.423C54.4755 110.423 56.6132 109.14 58.4862 106.778V109.995H60.7877V91.649H58.4862V94.8862ZM51.278 108.305C47.226 108.305 44.0293 104.782 44.0293 100.811C44.0293 96.861 47.2053 93.3185 51.278 93.3185C55.3301 93.3185 58.4862 96.861 58.4862 100.811C58.4862 104.782 55.3102 108.305 51.278 108.305Z" fill="#ABABAB"/>
<path d="M66.0411 85.1736H63.5767V109.995H66.0411V85.1736Z" fill="#ABABAB"/>
<path d="M75.346 107.084L69.1157 91.6489H66.6719L74.1448 109.995H76.6291L84.0813 91.6489H81.6788L75.346 107.084Z" fill="#ABABAB"/>
<path d="M87.5631 91.6489H85.0986V109.996H87.5631V91.6489Z" fill="#ABABAB"/>
<path d="M87.5631 85.1736H85.0986V89.2868H87.5631V85.1736Z" fill="#ABABAB"/>
<path d="M98.1712 91.2014C95.8499 91.2014 94.201 92.4233 92.6731 94.0522V91.649H90.3931V109.996H92.8162V98.8174C92.7963 95.8648 95.2393 93.3193 98.2118 93.3193C101.938 93.3193 103.812 96.5565 103.812 99.8962V109.996H106.092V99.8962C106.092 95.131 103.302 91.2014 98.1712 91.2014Z" fill="#ABABAB"/>
<path d="M128.959 85.1736L117.76 99.4063V85.1736H115.337V109.995H117.76V103.174L120.936 99.2234L129.02 109.995H132.094L122.484 97.2685L132.094 85.1736H128.959Z" fill="#ABABAB"/>
<path d="M135.393 85.1736H132.99V109.995H135.393V85.1736Z" fill="#ABABAB"/>
<path d="M155.287 96.2711C153.617 93.1555 150.278 91.2014 146.756 91.2014C141.502 91.2014 137.064 95.5794 137.064 100.833C137.064 106.127 141.544 110.423 146.797 110.423C149.301 110.423 151.765 109.425 153.577 107.695C154.677 106.656 155.329 105.353 155.919 103.989H153.333C152.03 106.534 149.73 108.306 146.756 108.306C144.945 108.306 143.173 107.573 141.829 106.331C140.444 105.068 139.834 103.521 139.569 101.688H156.489C156.488 99.773 156.223 97.9405 155.287 96.2711ZM139.649 99.5695C140.381 96.1288 143.09 93.3185 146.796 93.3185C149.911 93.3185 153.251 95.232 153.984 99.5695H139.649Z" fill="#ABABAB"/>
<path d="M160.704 91.6489H158.281V109.996H160.704V91.6489Z" fill="#ABABAB"/>
<path d="M160.704 85.1736H158.281V89.3679H160.704V85.1736Z" fill="#ABABAB"/>
<path d="M171.353 91.2014C168.991 91.2014 167.341 92.4233 165.794 94.0522V91.649H163.473V109.996H165.916V98.8174C165.896 95.8441 168.4 93.3193 171.393 93.3193C175.099 93.3193 177.054 96.5565 177.054 99.8962V109.996H179.334V99.8962C179.334 95.131 176.504 91.2014 171.353 91.2014Z" fill="#ABABAB"/>
</svg>
