<svg width="196" height="196" viewBox="0 0 196 196" fill="none" xmlns="http://www.w3.org/2000/svg">
<rect width="195.938" height="195.938" fill="white"/>
<path fill-rule="evenodd" clip-rule="evenodd" d="M59.7699 98.8932L61.1628 92.9908H44.4488C41.3884 92.9687 39.4824 94.2158 38.8786 96.7212L35.2686 111.682H50.4329C55.0749 111.674 57.0869 110.862 58.1696 105.676H49.7111C49.2522 106.612 48.5151 107.383 47.6009 107.884C46.6867 108.384 45.6401 108.59 44.6045 108.472L46.8217 98.9439C47.4104 97.0103 49.0953 96.1127 51.8765 96.251C51.6558 97.1339 51.4325 98.0139 51.2066 98.891L59.7699 98.8932Z" fill="#ABABAB"/>
<path fill-rule="evenodd" clip-rule="evenodd" d="M85.5467 92.9907H68.6926C65.6322 92.973 63.7261 94.2168 63.1235 96.7188L59.5112 111.682H74.6767C79.3187 111.674 81.8505 111.051 82.6496 105.676H82.6386L85.5467 92.9907ZM73.9461 105.683C73.486 106.615 72.7494 107.383 71.8369 107.881C70.9243 108.379 69.8802 108.584 68.8471 108.466L71.0655 98.9394C71.6505 97.0065 73.3354 96.1093 76.1203 96.2476L74.0233 105.362L73.9494 105.693L73.9461 105.683Z" fill="#ABABAB"/>
<path fill-rule="evenodd" clip-rule="evenodd" d="M90.4336 83.8613L85.0786 106.436C84.2288 110.111 85.3446 111.684 87.9747 111.685H96.2323L96.4199 110.527H95.7456C93.759 110.554 93.06 109.292 93.6486 106.74L99.0135 83.8613H90.4336Z" fill="#ABABAB"/>
<path fill-rule="evenodd" clip-rule="evenodd" d="M122.051 98.8931L123.444 92.9907H106.732C103.672 92.973 101.766 94.2168 101.162 96.7188L97.5518 111.683H112.716C117.358 111.675 119.37 110.863 120.453 105.677H111.993C111.534 106.613 110.797 107.384 109.883 107.885C108.969 108.385 107.922 108.591 106.887 108.473L109.105 98.946C109.69 97.0132 111.375 96.1159 114.16 96.2542L113.489 98.8942L122.051 98.8931Z" fill="#ABABAB"/>
<path fill-rule="evenodd" clip-rule="evenodd" d="M146.243 98.8931L147.636 92.9907H130.929C127.868 92.973 125.962 94.2168 125.359 96.7188L121.749 111.683H136.912C141.554 111.675 143.566 110.863 144.649 105.677H136.189C135.73 106.613 134.993 107.384 134.079 107.885C133.164 108.385 132.118 108.591 131.082 108.473L133.301 98.946C133.886 97.0132 135.57 96.1159 138.355 96.2542L137.684 98.8942L146.243 98.8931Z" fill="#ABABAB"/>
<path fill-rule="evenodd" clip-rule="evenodd" d="M151.558 85.3049L150.272 90.5893H155.443C156.329 90.7327 157.236 90.5407 157.987 90.0509C158.738 89.561 159.279 88.8084 159.505 87.9405L160.138 85.306L151.558 85.3049ZM149.692 92.9611L146.409 106.436C145.559 110.111 146.675 111.684 149.305 111.685H157.562L157.75 110.527H157.076C155.089 110.554 154.39 109.292 154.979 106.741L158.29 92.9622L149.692 92.9611Z" fill="#ABABAB"/>
</svg>
