<svg width="196" height="196" viewBox="0 0 196 196" fill="none" xmlns="http://www.w3.org/2000/svg">
<rect width="195.938" height="195.938" fill="white"/>
<path d="M166.577 96.3634V92.0505L164.124 95.5389L160.044 94.2069L162.602 97.7164L160.086 101.205L164.124 99.8728L166.577 103.382V99.0483L170.699 97.7164L166.577 96.3634Z" fill="#ABABAB"/>
<path d="M174.547 87.78H166.788L175.837 97.7164L166.788 107.653H174.547L183.596 97.7164L174.547 87.78ZM22.1185 93.5939C23.3447 93.5939 24.5498 94.1858 25.3531 95.1795L25.6491 95.5389L29.4334 92.9385L29.0951 92.5157C27.425 90.4227 24.8669 89.2176 22.1185 89.2176C17.2772 89.2176 13.3237 93.0019 13.3237 97.6319C13.3237 102.262 17.2772 106.046 22.1185 106.046C24.8457 106.046 27.3827 104.862 29.0529 102.811L29.3911 102.389L25.6068 99.7883L25.3108 100.148C24.4863 101.141 23.3236 101.712 22.0974 101.712C19.8564 101.712 17.9537 99.8517 17.9537 97.653C17.9748 95.4543 19.8775 93.5939 22.1185 93.5939ZM62.7732 98.6467L55.9234 89.6827H51.5683V105.539H55.7966V96.6594L62.1813 105.539H67.0015V89.6827H62.7732V98.6467ZM79.052 100.972C79.052 101.099 78.8829 101.12 78.7983 101.12C78.7349 101.12 78.6081 101.099 78.5446 100.951L75.0352 89.6827H70.1727L75.3523 105.539H82.2655L87.4451 89.6827H82.5826L79.052 100.972ZM118.417 99.0695C120.108 98.097 121.081 96.3211 120.933 94.3761C120.743 91.7335 118.438 89.7039 115.69 89.7039H107.593V105.56H111.821V99.8517H113.724C113.914 99.8517 114.083 99.8729 114.21 100.042L116.937 105.56H121.694L118.417 99.0695ZM115.563 95.6023H111.842V93.911H115.563C116.07 93.911 116.493 94.2493 116.493 94.7567C116.493 95.264 116.07 95.6023 115.563 95.6023ZM141.842 105.539H154.526V101.31H146.07V99.4077H153.681V95.6023H146.07V93.911H154.526V89.6827H141.842V105.539ZM132.286 95.6657C130.024 95.1583 129.368 94.8201 129.368 94.0801V94.0379C129.368 93.4459 129.812 92.9808 130.912 92.9808C132.37 92.9808 133.554 93.4459 135.14 94.3973L137.677 91.3952C135.901 89.9787 133.766 89.2176 130.996 89.2176C127.064 89.2176 124.717 91.4163 124.717 94.4607V94.503C124.717 97.8644 127.487 98.8581 130.975 99.6403C133.195 100.148 133.808 100.528 133.808 101.205V101.247C133.808 101.945 133.026 102.368 131.8 102.368C129.897 102.368 128.036 101.691 126.43 100.401L123.872 103.425C125.88 105.222 128.798 106.131 131.694 106.131C135.668 106.131 138.459 104.143 138.459 100.803V100.761C138.459 97.6953 136.049 96.4902 132.286 95.6657ZM39.7081 89.2388C34.9724 89.2388 31.1247 93.0231 31.1247 97.653C31.1247 102.304 34.9724 106.067 39.7081 106.067C44.4437 106.067 48.2914 102.283 48.2914 97.653C48.2914 93.0019 44.4437 89.2388 39.7081 89.2388ZM39.7081 101.67C37.4882 101.67 35.6912 99.8729 35.6912 97.653C35.6912 95.4332 37.4882 93.6362 39.7081 93.6362C41.9279 93.6362 43.7249 95.4332 43.7249 97.653C43.7249 99.8729 41.9279 101.67 39.7081 101.67ZM90.4683 105.539H103.153V101.31H94.6966V99.4077H102.307V95.6023H94.6966V93.911H103.153V89.6827H90.4683V105.539Z" fill="#ABABAB"/>
</svg>
