<svg width="196" height="196" viewBox="0 0 196 196" fill="none" xmlns="http://www.w3.org/2000/svg">
<rect width="195.938" height="195.938" fill="white"/>
<path fill-rule="evenodd" clip-rule="evenodd" d="M35.2686 70.5376L47.3452 123.455C59.4697 116.46 84.448 114.007 98.3386 123.489C112.233 114.027 137.185 116.464 149.302 123.455L161.378 70.5376H35.2686Z" fill="#ABABAB"/>
<path fill-rule="evenodd" clip-rule="evenodd" d="M50.9341 83.4202V103.309H64.8563V98.6394H57.5925V83.4202H50.9341ZM86.0747 83.4526H93.4928L98.4965 96.812L103.328 83.4526H110.659L102.293 103.276H94.5282L86.0747 83.4526ZM112.51 83.4337V103.295H119.161V83.4337H112.51ZM76.0985 83.0906C70.0089 83.0906 65.6901 84.2561 65.6901 93.4942C65.6901 101.092 67.5472 104.244 76.3573 104.244C85.772 104.244 85.9453 99.7967 86.2041 97.6815H79.5531C79.5531 99.3653 77.8686 100.099 76.1409 100.099C75.6226 100.099 72.4699 100.531 72.4699 95.4362H86.2034C86.2897 94.7021 86.2055 91.8939 86.1603 91.4646C85.6864 86.9759 85.2543 83.0475 76.0985 83.0906ZM136.806 83.1135C142.238 83.1135 145.687 85.1377 146.117 89.5306H139.22C139.22 88.5836 138.531 86.8175 136.546 86.8175C134.564 86.8175 133.485 87.4633 133.485 88.9274C133.485 90.4777 134.391 90.8653 135.081 91.0379C135.426 91.1242 139.565 91.7268 140.943 91.8993C141.97 92.0274 146.203 92.2438 146.117 96.5504C146.031 100.858 143.358 103.528 136.633 103.528C129.907 103.528 126.717 101.202 126.717 97.4125H133.615C133.657 98.7472 134.391 99.7381 136.546 99.7381C138.703 99.7381 139.823 98.793 139.823 97.3263C139.823 96.206 138.831 95.6033 137.754 95.5171C137.045 95.4604 132.538 95.4308 130.382 94.483C128.46 93.6384 126.257 92.3368 126.631 89.0561C127.062 85.2672 129.821 83.1135 136.806 83.1135ZM126.41 83.766C126.426 85.2773 126.297 86.2702 124.267 87.3932C124.397 87.1 124.796 86.4859 124.731 86.0733C124.39 86.2043 124.027 86.2711 123.661 86.2702C122.143 86.2702 120.913 85.1492 120.913 83.7667C120.913 82.3842 122.143 81.2632 123.661 81.2632C125.181 81.2625 126.41 82.3835 126.41 83.766Z" fill="white"/>
<path fill-rule="evenodd" clip-rule="evenodd" d="M72.5981 91.2443H79.7291C79.7723 88.5218 78.7349 87.053 76.0986 87.053C73.7218 87.053 72.5981 88.5656 72.5981 91.2443ZM144.928 123.95C144.808 123.827 144.664 123.73 144.506 123.665C144.347 123.6 144.177 123.568 144.005 123.571C143.647 123.571 143.34 123.697 143.088 123.95C142.965 124.069 142.867 124.212 142.802 124.37C142.736 124.528 142.704 124.698 142.706 124.869C142.706 125.231 142.833 125.539 143.084 125.793C143.338 126.049 143.645 126.177 144.006 126.177C144.366 126.177 144.674 126.049 144.929 125.793C145.183 125.538 145.309 125.23 145.309 124.869C145.311 124.698 145.279 124.528 145.213 124.37C145.148 124.212 145.051 124.069 144.928 123.95ZM144.797 125.668C144.58 125.887 144.315 125.997 144.004 125.997C143.694 125.997 143.429 125.887 143.21 125.668C143.105 125.563 143.023 125.439 142.967 125.301C142.911 125.164 142.884 125.017 142.887 124.869C142.887 124.559 142.995 124.295 143.213 124.076C143.431 123.856 143.695 123.746 144.004 123.746C144.314 123.746 144.579 123.856 144.797 124.076C145.015 124.295 145.123 124.559 145.123 124.869C145.124 125.181 145.015 125.447 144.797 125.668Z" fill="#ABABAB"/>
<path fill-rule="evenodd" clip-rule="evenodd" d="M144.585 125.563C144.579 125.55 144.575 125.525 144.572 125.488C144.569 125.451 144.568 125.416 144.568 125.382V125.277C144.566 125.197 144.539 125.12 144.49 125.056C144.462 125.016 144.425 124.983 144.382 124.959C144.34 124.935 144.293 124.92 144.244 124.915C144.317 124.907 144.388 124.883 144.451 124.846C144.545 124.786 144.592 124.692 144.592 124.564C144.592 124.384 144.519 124.264 144.371 124.202C144.288 124.168 144.158 124.15 143.98 124.15H143.48V125.581H143.731V125.017H143.93C144.064 125.017 144.158 125.032 144.211 125.062C144.302 125.116 144.346 125.225 144.346 125.391V125.504L144.352 125.55L144.354 125.565C144.355 125.57 144.357 125.575 144.358 125.579H144.594L144.585 125.563ZM144.199 124.808C144.121 124.833 144.04 124.844 143.959 124.841H143.731V124.322H143.946C144.085 124.322 144.186 124.34 144.251 124.376C144.314 124.411 144.346 124.481 144.346 124.585C144.345 124.695 144.296 124.77 144.199 124.808Z" fill="#ABABAB"/>
</svg>
