<svg width="37" height="37" viewBox="0 0 37 37" fill="none" xmlns="http://www.w3.org/2000/svg">
<circle cx="18.577" cy="18.1541" r="18.1541" fill="black"/>
<g clip-path="url(#clip0_454_769)">
<path d="M18.9475 10.4944C21.3231 10.4944 21.602 10.505 22.5409 10.5474C23.4093 10.5862 23.8787 10.7309 24.1929 10.8545C24.6094 11.0168 24.9059 11.2075 25.2166 11.5181C25.5272 11.8287 25.7213 12.1252 25.8802 12.5418C26.0002 12.8559 26.1485 13.3254 26.1873 14.1937C26.2297 15.1327 26.2402 15.4116 26.2402 17.7872C26.2402 20.1628 26.2297 20.4417 26.1873 21.3806C26.1485 22.249 26.0037 22.7184 25.8802 23.0326C25.7178 23.4491 25.5272 23.7456 25.2166 24.0563C24.9059 24.3669 24.6094 24.561 24.1929 24.7199C23.8787 24.8399 23.4093 24.9882 22.5409 25.027C21.602 25.0694 21.3231 25.0799 18.9475 25.0799C16.5719 25.0799 16.293 25.0694 15.354 25.027C14.4857 24.9882 14.0162 24.8434 13.702 24.7199C13.2855 24.5575 12.989 24.3669 12.6784 24.0563C12.3677 23.7456 12.1736 23.4491 12.0148 23.0326C11.8947 22.7184 11.7465 22.249 11.7077 21.3806C11.6653 20.4417 11.6547 20.1628 11.6547 17.7872C11.6547 15.4116 11.6653 15.1327 11.7077 14.1937C11.7465 13.3254 11.8912 12.8559 12.0148 12.5418C12.1771 12.1252 12.3677 11.8287 12.6784 11.5181C12.989 11.2075 13.2855 11.0133 13.702 10.8545C14.0162 10.7345 14.4857 10.5862 15.354 10.5474C16.293 10.5015 16.5754 10.4944 18.9475 10.4944ZM18.9475 8.89185C16.533 8.89185 16.2295 8.90244 15.2799 8.94479C14.3339 8.98715 13.6879 9.13894 13.1231 9.35779C12.5372 9.5837 12.043 9.89081 11.5488 10.385C11.0546 10.8792 10.7511 11.3769 10.5216 11.9593C10.3028 12.5241 10.151 13.1701 10.1086 14.1196C10.0663 15.0656 10.0557 15.3692 10.0557 17.7836C10.0557 20.1981 10.0663 20.5017 10.1086 21.4512C10.151 22.3972 10.3028 23.0432 10.5216 23.6115C10.7475 24.1975 11.0546 24.6917 11.5488 25.1858C12.043 25.68 12.5407 25.9836 13.1231 26.213C13.6879 26.4319 14.3339 26.5837 15.2834 26.626C16.233 26.6684 16.533 26.679 18.951 26.679C21.369 26.679 21.669 26.6684 22.6186 26.626C23.5646 26.5837 24.2106 26.4319 24.7789 26.213C25.3648 25.9871 25.859 25.68 26.3532 25.1858C26.8474 24.6917 27.151 24.1939 27.3804 23.6115C27.5993 23.0467 27.751 22.4008 27.7934 21.4512C27.8358 20.5017 27.8463 20.2016 27.8463 17.7836C27.8463 15.3657 27.8358 15.0656 27.7934 14.1161C27.751 13.1701 27.5993 12.5241 27.3804 11.9558C27.1545 11.3698 26.8474 10.8756 26.3532 10.3815C25.859 9.88728 25.3613 9.5837 24.7789 9.35426C24.2141 9.13541 23.5681 8.98362 22.6186 8.94126C21.6655 8.90244 21.3619 8.89185 18.9475 8.89185Z" fill="white"/>
<path d="M18.9475 10.4944C21.3231 10.4944 21.602 10.505 22.5409 10.5474C23.4093 10.5862 23.8787 10.7309 24.1929 10.8545C24.6094 11.0168 24.9059 11.2075 25.2166 11.5181C25.5272 11.8287 25.7213 12.1252 25.8802 12.5418C26.0002 12.8559 26.1485 13.3254 26.1873 14.1937C26.2297 15.1327 26.2402 15.4116 26.2402 17.7872C26.2402 20.1628 26.2297 20.4417 26.1873 21.3806C26.1485 22.249 26.0037 22.7184 25.8802 23.0326C25.7178 23.4491 25.5272 23.7456 25.2166 24.0563C24.9059 24.3669 24.6094 24.561 24.1929 24.7199C23.8787 24.8399 23.4093 24.9882 22.5409 25.027C21.602 25.0694 21.3231 25.0799 18.9475 25.0799C16.5719 25.0799 16.293 25.0694 15.354 25.027C14.4857 24.9882 14.0162 24.8434 13.702 24.7199C13.2855 24.5575 12.989 24.3669 12.6784 24.0563C12.3677 23.7456 12.1736 23.4491 12.0148 23.0326C11.8947 22.7184 11.7465 22.249 11.7077 21.3806C11.6653 20.4417 11.6547 20.1628 11.6547 17.7872C11.6547 15.4116 11.6653 15.1327 11.7077 14.1937C11.7465 13.3254 11.8912 12.8559 12.0148 12.5418C12.1771 12.1252 12.3677 11.8287 12.6784 11.5181C12.989 11.2075 13.2855 11.0133 13.702 10.8545C14.0162 10.7345 14.4857 10.5862 15.354 10.5474C16.293 10.5015 16.5754 10.4944 18.9475 10.4944Z" fill="white"/>
<path d="M18.9476 13.2195C16.4272 13.2195 14.3799 15.2633 14.3799 17.7872C14.3799 20.311 16.4237 22.3548 18.9476 22.3548C21.4714 22.3548 23.5152 20.311 23.5152 17.7872C23.5152 15.2633 21.4714 13.2195 18.9476 13.2195ZM18.9476 20.7487C17.3097 20.7487 15.9825 19.4215 15.9825 17.7836C15.9825 16.1458 17.3097 14.8185 18.9476 14.8185C20.5854 14.8185 21.9127 16.1458 21.9127 17.7836C21.9127 19.4215 20.5854 20.7487 18.9476 20.7487Z" fill="black"/>
<path d="M23.6949 14.102C24.2837 14.102 24.761 13.6248 24.761 13.036C24.761 12.4472 24.2837 11.97 23.6949 11.97C23.1062 11.97 22.6289 12.4472 22.6289 13.036C22.6289 13.6248 23.1062 14.102 23.6949 14.102Z" fill="black"/>
</g>
<defs>
<clipPath id="clip0_454_769">
<rect width="17.7836" height="17.7836" fill="white" transform="translate(10.0557 8.89185)"/>
</clipPath>
</defs>
</svg>
