<svg width="38" height="37" viewBox="0 0 38 37" fill="none" xmlns="http://www.w3.org/2000/svg">
<circle cx="18.9998" cy="18.1541" r="18.1541" fill="black"/>
<g clip-path="url(#clip0_454_775)">
<path d="M26.9493 8.89185H11.7913C11.4431 8.89185 11.1092 9.03016 10.863 9.27635C10.6168 9.52254 10.4785 9.85645 10.4785 10.2046V25.3627C10.4785 25.7108 10.6168 26.0448 10.863 26.291C11.1092 26.5371 11.4431 26.6755 11.7913 26.6755H26.9493C27.2975 26.6755 27.6314 26.5371 27.8776 26.291C28.1238 26.0448 28.2621 25.7108 28.2621 25.3627V10.2046C28.2621 9.85645 28.1238 9.52254 27.8776 9.27635C27.6314 9.03016 27.2975 8.89185 26.9493 8.89185ZM15.779 24.0413H13.1053V15.5483H15.779V24.0413ZM14.4403 14.3714C14.137 14.3697 13.841 14.2782 13.5897 14.1084C13.3384 13.9387 13.143 13.6983 13.0281 13.4175C12.9133 13.1368 12.8842 12.8284 12.9445 12.5312C13.0048 12.2339 13.1518 11.9612 13.367 11.7474C13.5821 11.5337 13.8558 11.3884 14.1534 11.33C14.451 11.2716 14.7593 11.3027 15.0392 11.4193C15.3192 11.536 15.5584 11.7329 15.7265 11.9853C15.8947 12.2377 15.9843 12.5343 15.984 12.8376C15.9869 13.0406 15.9488 13.2422 15.8721 13.4302C15.7955 13.6183 15.6817 13.7889 15.5376 13.9321C15.3936 14.0752 15.2222 14.1879 15.0337 14.2633C14.8451 14.3388 14.6433 14.3756 14.4403 14.3714ZM25.6341 24.0487H22.9616V19.4089C22.9616 18.0405 22.3799 17.6182 21.6291 17.6182C20.8362 17.6182 20.0582 18.2159 20.0582 19.4435V24.0487H17.3845V15.5545H19.9557V16.7315H19.9903C20.2484 16.2091 21.1524 15.3162 22.5319 15.3162C24.0237 15.3162 25.6353 16.2017 25.6353 18.7951L25.6341 24.0487Z" fill="white"/>
</g>
<defs>
<clipPath id="clip0_454_775">
<rect width="17.7836" height="17.7836" fill="white" transform="translate(10.4785 8.89185)"/>
</clipPath>
</defs>
</svg>
