<svg width="37" height="37" viewBox="0 0 37 37" fill="none" xmlns="http://www.w3.org/2000/svg">
<circle cx="18.8455" cy="18.1541" r="18.1541" fill="black"/>
<g clip-path="url(#clip0_454_785)">
<path d="M23.0991 8.89185H20.0289V21.0053C20.0289 22.4486 18.8481 23.6342 17.3787 23.6342C15.9092 23.6342 14.7284 22.4486 14.7284 21.0053C14.7284 19.5878 15.8829 18.428 17.2999 18.3764V15.3352C14.1773 15.3867 11.6582 17.8867 11.6582 21.0053C11.6582 24.1497 14.2298 26.6755 17.4049 26.6755C20.58 26.6755 23.1516 24.1239 23.1516 21.0053V14.7939C24.3062 15.6187 25.7231 16.1084 27.2189 16.1342V13.0929C24.9097 13.0156 23.0991 11.1599 23.0991 8.89185Z" fill="white"/>
</g>
<defs>
<clipPath id="clip0_454_785">
<rect width="17.7836" height="17.7836" fill="white" transform="translate(10.3242 8.89185)"/>
</clipPath>
</defs>
</svg>
