<svg width="17" height="17" viewBox="0 0 17 17" fill="none" xmlns="http://www.w3.org/2000/svg">
<path d="M0 16.5557L1.17012 12.3066C0.446702 11.0594 0.067203 9.64698 0.0711561 8.20308C0.0711561 3.6786 3.77127 0 8.3134 0C10.5192 0 12.5907 0.85375 14.1442 2.40388C15.7018 3.954 16.5596 6.01559 16.5556 8.20701C16.5556 12.7315 12.8555 16.4101 8.30945 16.4101H8.3055C6.92586 16.4101 5.56994 16.0639 4.36424 15.4108L0 16.5557ZM4.57376 13.9275L4.8228 14.077C5.87433 14.6987 7.08003 15.0252 8.30945 15.0291H8.3134C12.0886 15.0291 15.1642 11.9722 15.1642 8.21095C15.1642 6.38935 14.4526 4.67792 13.1599 3.38746C11.8673 2.097 10.1437 1.38882 8.3134 1.38882C4.53818 1.38488 1.46265 4.44186 1.46265 8.20308C1.46265 9.48961 1.82239 10.7447 2.51023 11.8305L2.67231 12.0902L1.98051 14.6042L4.57376 13.9275Z" fill="black"/>
<path fill-rule="evenodd" clip-rule="evenodd" d="M6.25397 4.77233C6.0998 4.43004 5.93772 4.42218 5.79146 4.41824C5.67287 4.41431 5.53451 4.41431 5.39615 4.41431C5.25779 4.41431 5.03641 4.46545 4.84666 4.67004C4.65691 4.87462 4.1272 5.37035 4.1272 6.38147C4.1272 7.38866 4.86643 8.36438 4.96921 8.50208C5.07199 8.63978 6.39629 10.7761 8.48748 11.5984C10.2269 12.283 10.5826 12.1453 10.9582 12.1099C11.3337 12.0744 12.1757 11.6141 12.3497 11.1341C12.5197 10.6542 12.5197 10.245 12.4683 10.1584C12.4169 10.0719 12.2785 10.0207 12.073 9.91844C11.8674 9.81614 10.8554 9.32042 10.6657 9.2496C10.4759 9.18272 10.3375 9.14731 10.2031 9.35189C10.0648 9.55648 9.66947 10.0168 9.55087 10.1545C9.43228 10.2922 9.30973 10.3079 9.10417 10.2056C8.89861 10.1033 8.23448 9.88696 7.44781 9.18665C6.83508 8.64371 6.42 7.97094 6.30141 7.76636C6.18282 7.56177 6.28955 7.45161 6.39233 7.34932C6.48325 7.25883 6.59789 7.10932 6.70068 6.99129C6.80346 6.87326 6.83903 6.78671 6.90624 6.64901C6.97344 6.51131 6.94182 6.39328 6.89042 6.29098C6.83903 6.19262 6.43582 5.17757 6.25397 4.77233Z" fill="black"/>
</svg>
