<svg width="37" height="37" viewBox="0 0 37 37" fill="none" xmlns="http://www.w3.org/2000/svg">
<circle cx="18.4227" cy="18.1541" r="18.1541" fill="black"/>
<g clip-path="url(#clip0_454_779)">
<path d="M27.3187 13.5076C27.1136 12.7459 26.513 12.1453 25.7513 11.9402C24.3596 11.5593 18.7931 11.5593 18.7931 11.5593C18.7931 11.5593 13.2266 11.5593 11.835 11.9255C11.0879 12.1306 10.4727 12.7459 10.2676 13.5076C9.90137 14.8992 9.90137 17.785 9.90137 17.785C9.90137 17.785 9.90137 20.6855 10.2676 22.0624C10.4727 22.8242 11.0733 23.4248 11.835 23.6299C13.2413 24.0107 18.7931 24.0107 18.7931 24.0107C18.7931 24.0107 24.3596 24.0107 25.7513 23.6445C26.513 23.4394 27.1136 22.8388 27.3187 22.0771C27.6849 20.6855 27.6849 17.7997 27.6849 17.7997C27.6849 17.7997 27.6995 14.8992 27.3187 13.5076Z" fill="white"/>
<path d="M17.0205 20.451L21.6495 17.785L17.0205 15.1189V20.451Z" fill="black"/>
</g>
<defs>
<clipPath id="clip0_454_779">
<rect width="17.7836" height="17.7836" fill="white" transform="translate(9.90137 8.89185)"/>
</clipPath>
</defs>
</svg>
