<svg width="62" height="39" viewBox="0 0 62 39" fill="none" xmlns="http://www.w3.org/2000/svg">
<path d="M56.532 38.373H4.632C3.4041 38.3717 2.22686 37.8834 1.35851 37.0152C0.490152 36.147 0.00158812 34.9699 0 33.742V4.632C0.00158758 3.40401 0.49012 2.22677 1.35844 1.35844C2.22677 0.49012 3.40401 0.00158758 4.632 0H56.532C57.76 0.00132395 58.9373 0.489805 59.8055 1.35822C60.6737 2.22663 61.1619 3.40402 61.163 4.632V33.742C61.1617 34.9698 60.6734 36.147 59.8052 37.0152C58.937 37.8833 57.7598 38.3717 56.532 38.373ZM4.632 0.392014C3.50755 0.393073 2.42945 0.840218 1.63434 1.63533C0.839226 2.43044 0.392066 3.50855 0.391006 4.63301V33.743C0.392331 34.8672 0.839638 35.9449 1.63475 36.7397C2.42986 37.5344 3.50781 37.9812 4.632 37.982H56.532C57.6559 37.9807 58.7333 37.5336 59.528 36.739C60.3227 35.9443 60.7697 34.8669 60.771 33.743V4.63301C60.77 3.5089 60.3231 2.4311 59.5284 1.63605C58.7337 0.840992 57.6561 0.393602 56.532 0.392014H4.632Z" fill="black"/>
<path d="M15.4393 31.7739C15.4393 32.1931 15.315 32.6029 15.0821 32.9514C14.8491 33.2999 14.5181 33.5715 14.1308 33.7318C13.7435 33.8921 13.3173 33.934 12.9062 33.852C12.4951 33.7701 12.1175 33.5681 11.8213 33.2716C11.525 32.975 11.3233 32.5973 11.2418 32.1861C11.1603 31.7749 11.2025 31.3488 11.3632 30.9616C11.5239 30.5744 11.7958 30.2436 12.1445 30.011C12.4933 29.7784 12.9031 29.6545 13.3223 29.6549C13.6016 29.651 13.8788 29.7031 14.1375 29.8083C14.3963 29.9134 14.6313 30.0694 14.8287 30.2669C15.0261 30.4645 15.1818 30.6997 15.2867 30.9586C15.3916 31.2174 15.4435 31.4947 15.4393 31.7739ZM15.8163 31.7739C15.8203 31.2784 15.6769 30.7929 15.4044 30.3791C15.1319 29.9652 14.7426 29.6416 14.2858 29.4495C13.8291 29.2574 13.3255 29.2053 12.8391 29.2999C12.3527 29.3945 11.9054 29.6315 11.554 29.9808C11.2025 30.3301 10.9628 30.776 10.8653 31.2618C10.7678 31.7477 10.8168 32.2515 11.0062 32.7094C11.1956 33.1673 11.5168 33.5586 11.929 33.8336C12.3412 34.1086 12.8258 34.2549 13.3213 34.2539C13.6482 34.2553 13.9721 34.1923 14.2745 34.0684C14.577 33.9445 14.852 33.7621 15.0838 33.5317C15.3157 33.3014 15.4998 33.0275 15.6257 32.7259C15.7516 32.4243 15.8167 32.1007 15.8173 31.7739H15.8163ZM13.9023 31.2639C13.9023 30.9699 13.7023 30.9459 13.5563 30.9459H12.8563V31.5939H13.5013C13.7183 31.5939 13.9033 31.5419 13.9033 31.2659L13.9023 31.2639ZM14.4023 32.9099H13.9433C13.8971 32.7099 13.874 32.5052 13.8743 32.2999C13.8743 32.1309 13.8473 31.9589 13.5313 31.9589H12.8573V32.9099H12.4503V30.5839H13.5303C13.9023 30.5839 14.3143 30.7139 14.3143 31.2319C14.3215 31.3336 14.3021 31.4355 14.2579 31.5274C14.2137 31.6193 14.1463 31.698 14.0623 31.7559C14.1623 31.8149 14.2623 31.9159 14.2723 32.1769L14.2893 32.5769C14.2893 32.6939 14.3063 32.7189 14.4003 32.7769L14.4023 32.9099Z" fill="black"/>
<path d="M27.7655 24.4959H25.4885V23.7259H27.5185V22.9259H25.4885V22.2259H27.8075L28.8235 23.3539L27.7655 24.4899V24.4959ZM30.0175 23.3679L31.4365 21.8389V24.9389L30.0175 23.3679ZM33.5635 23.2039H32.3635V22.2259H33.5735C33.9065 22.2259 34.1355 22.3649 34.1355 22.6999C34.1355 23.0349 33.9165 23.2099 33.5645 23.2099L33.5635 23.2039ZM38.0785 23.0119C37.9365 23.0779 37.7794 23.1048 37.6235 23.0899H36.4955V22.2249H37.6375C37.7876 22.2143 37.9381 22.2369 38.0785 22.2909C38.1393 22.3263 38.1892 22.3778 38.2226 22.4397C38.2559 22.5017 38.2715 22.5717 38.2675 22.6419C38.2726 22.7158 38.2577 22.7897 38.2245 22.8558C38.1912 22.922 38.1408 22.978 38.0785 23.0179V23.0119ZM33.5735 21.4199H30.6115L29.4295 22.6919L28.2935 21.4199H24.5625V25.2999H28.2355L29.4205 24.0199L30.5595 25.2999H32.3595V23.9999H33.5125C34.3215 23.9999 35.1245 23.7749 35.1245 22.6999C35.1245 21.6249 34.3045 21.4259 33.5735 21.4259V21.4199ZM38.8195 21.6079C38.4709 21.447 38.0856 21.3821 37.7035 21.4199H35.5675V25.2999H36.4935V23.8879H37.4935C37.8295 23.8879 38.0335 23.9159 38.1665 24.0569C38.3016 24.2832 38.3546 24.5492 38.3165 24.8099V25.2999H39.2475V24.5299C39.2754 24.2862 39.222 24.0401 39.0955 23.8299C38.9769 23.6795 38.8186 23.5653 38.6385 23.4999C38.8391 23.4142 39.0093 23.2702 39.127 23.0865C39.2447 22.9028 39.3044 22.688 39.2985 22.4699C39.31 22.2962 39.2709 22.1229 39.1859 21.9709C39.1008 21.819 38.9736 21.695 38.8195 21.6139V21.6079ZM42.9055 24.4919H40.7365V23.7259H42.8535V22.9259H40.7365V22.2259H42.9055V21.4259H39.8055V25.3059H42.9055V24.4919ZM46.4375 23.2539C46.1398 23.0145 45.7596 22.902 45.3795 22.9409L44.8795 22.9299C44.7596 22.9328 44.6399 22.9176 44.5245 22.8849C44.4652 22.864 44.4139 22.8249 44.3781 22.7732C44.3422 22.7215 44.3234 22.6599 44.3245 22.5969C44.3196 22.5425 44.3297 22.4877 44.3536 22.4385C44.3776 22.3893 44.4146 22.3476 44.4605 22.3179C44.5745 22.2583 44.7039 22.2349 44.8315 22.2509H46.5315V21.4259H44.6725C44.5073 21.4007 44.3385 21.4117 44.1779 21.4582C44.0174 21.5046 43.8688 21.5855 43.7426 21.695C43.6164 21.8046 43.5155 21.9403 43.4469 22.0928C43.3783 22.2453 43.3437 22.4108 43.3455 22.5779C43.3455 23.8109 44.4335 23.7599 45.3005 23.7779C45.4148 23.7695 45.5284 23.8006 45.6225 23.8659C45.6596 23.8974 45.689 23.9369 45.7086 23.9814C45.7282 24.0259 45.7374 24.0743 45.7355 24.1229C45.736 24.1706 45.7265 24.2179 45.7075 24.2616C45.6886 24.3054 45.6606 24.3447 45.6255 24.3769C45.5184 24.4548 45.3863 24.4904 45.2545 24.4769H43.4545V25.3079H45.2605C46.1975 25.3079 46.7155 24.9079 46.7155 24.0839C46.73 23.9347 46.7127 23.7842 46.6648 23.6421C46.6169 23.5001 46.5394 23.3698 46.4375 23.2599V23.2539ZM50.3375 24.0769C50.3375 24.9019 49.8215 25.3009 48.8825 25.3009H47.0935V24.4699H48.8745C49.0072 24.4835 49.1403 24.4479 49.2485 24.3699C49.2834 24.3375 49.3112 24.2982 49.3301 24.2545C49.349 24.2107 49.3587 24.1636 49.3585 24.1159C49.3602 24.0673 49.3508 24.0188 49.331 23.9743C49.3113 23.9298 49.2817 23.8904 49.2445 23.8589C49.1504 23.7936 49.0367 23.7625 48.9225 23.7709C48.0575 23.7459 46.9675 23.8009 46.9675 22.5709C46.9675 22.0139 47.3215 21.4159 48.2965 21.4189H50.1475V22.2499H48.4475C48.3206 22.2344 48.1919 22.2577 48.0785 22.3169C48.0326 22.3466 47.9956 22.3883 47.9716 22.4375C47.9476 22.4867 47.9376 22.5415 47.9425 22.5959C47.9414 22.6589 47.9602 22.7205 47.996 22.7722C48.0319 22.8239 48.0832 22.863 48.1425 22.8839C48.2576 22.9166 48.3769 22.9318 48.4965 22.9289L48.9965 22.9399C49.377 22.9006 49.7576 23.0131 50.0555 23.2529C50.1588 23.3633 50.2374 23.4944 50.2862 23.6375C50.335 23.7806 50.3528 23.9324 50.3385 24.0829L50.3375 24.0769Z" fill="black"/>
<path d="M19.2253 16.9611L19.8573 15.4181L20.4893 16.9611H19.2253ZM34.4583 16.3491C34.3166 16.415 34.1599 16.4419 34.0043 16.4271H32.8763V15.5651H34.0173C34.1675 15.5528 34.3184 15.5754 34.4583 15.6311C34.5192 15.666 34.5693 15.7171 34.603 15.7787C34.6367 15.8403 34.6528 15.91 34.6494 15.9801C34.6532 16.053 34.6375 16.1257 34.6039 16.1905C34.5703 16.2554 34.5201 16.3101 34.4583 16.3491ZM42.4803 16.9611L41.8483 15.4181L41.2163 16.9611H42.4803ZM27.5213 14.7561H25.9783L24.8624 17.3881L23.6543 14.7561H22.1373V18.4291L20.5674 14.7561H19.1873L17.5273 18.6371H18.5383L18.8933 17.7681H20.8233L21.1803 18.6371H23.0663V15.5931L24.4133 18.6371H25.2273L26.5733 15.5991V18.6371H27.5233L27.5213 14.7561ZM31.3073 17.8301H29.1404V17.0621H31.2563V16.2621H29.1404V15.5621H31.3073V14.7531H28.2133V18.6341H31.3073V17.8301ZM35.2013 14.9461C34.8528 14.7849 34.4675 14.7197 34.0853 14.7571H31.9503V18.6381H32.8763V17.2251H33.8703C34.2083 17.2251 34.4114 17.2551 34.5434 17.3961C34.6798 17.6219 34.7336 17.8881 34.6953 18.1491V18.6391H35.6293V17.8691C35.6572 17.6253 35.6034 17.3791 35.4763 17.1691C35.3578 17.0197 35.2004 16.9058 35.0213 16.8401C35.2218 16.7543 35.3919 16.6102 35.5094 16.4266C35.6269 16.2429 35.6865 16.0281 35.6803 15.8101C35.6936 15.6348 35.6552 15.4595 35.5699 15.3057C35.4846 15.152 35.3561 15.0266 35.2003 14.9451L35.2013 14.9461ZM36.2123 18.6381H37.1603V14.7551H36.2074L36.2123 18.6381ZM48.1273 18.6381H46.8073L45.0544 15.7301V18.6381H43.1684L42.8113 17.7691H40.8833L40.5284 18.6381H39.4503C39.1941 18.6733 38.9332 18.6474 38.6889 18.5626C38.4446 18.4777 38.2238 18.3363 38.0445 18.1499C37.8652 17.9635 37.7325 17.7374 37.6572 17.4899C37.582 17.2425 37.5662 16.9808 37.6113 16.7261C37.5905 16.4531 37.624 16.1786 37.7098 15.9186C37.7957 15.6586 37.9321 15.4181 38.1113 15.2111C38.304 15.0449 38.5281 14.919 38.7703 14.841C39.0125 14.7631 39.2679 14.7345 39.5213 14.7571H40.4073V15.5901H39.5423C39.4133 15.5733 39.2821 15.5852 39.1581 15.6249C39.0342 15.6647 38.9206 15.7313 38.8253 15.8201C38.6263 16.0675 38.529 16.3815 38.5533 16.6981C38.5232 17.0241 38.6171 17.3494 38.8163 17.6091C38.9957 17.7583 39.227 17.8302 39.4594 17.8091H39.8773L41.1774 14.7591H42.5564L44.1273 18.4301V14.7591H45.5423L47.1733 17.4591V14.7591H48.1263L48.1273 18.6381Z" fill="black"/>
<path d="M50.4835 20.661H48.7665C48.3558 20.6397 47.9488 20.7485 47.6035 20.972V20.661H45.0715C44.6772 20.6408 44.2871 20.7501 43.9605 20.972V20.661H39.4365V20.972C39.0537 20.7585 38.6208 20.6511 38.1825 20.661H35.1955V20.972C34.8076 20.7295 34.3512 20.6203 33.8955 20.661H30.5465L29.7795 21.49L29.0675 20.661H24.0675V26.069H28.9675L29.7535 25.225L30.4985 26.065H33.5155V24.796H33.8155C34.2515 24.8203 34.6879 24.7564 35.0985 24.608V26.07H37.5985V24.654H37.7205C37.8725 24.654 37.8835 24.667 37.8835 24.812V26.07H45.4515C45.8979 26.0866 46.3388 25.967 46.7155 25.727V26.07H49.1155C49.5813 26.0856 50.045 26.0014 50.4755 25.823V35.731H17.5195V19.401H19.1045L19.4615 18.534H20.2615L20.6185 19.401H23.7345V18.746L24.0145 19.406H25.6275L25.9065 18.735V19.405H33.6435V17.989H33.7935C33.9045 17.989 33.9325 18.003 33.9325 18.175V19.405H37.9325V19.069C38.3923 19.3018 38.9024 19.4172 39.4175 19.405H41.1025L41.4655 18.538H42.2655L42.6235 19.405H45.8595V18.583L46.3595 19.405H48.9595V13.998H46.3885V14.635L46.0195 13.998H43.3795V14.635L43.0535 13.998H39.4885C38.9536 13.9698 38.4202 14.0767 37.9375 14.309V13.998H35.4785V14.309C35.1772 14.0827 34.8045 13.9723 34.4285 13.998H25.4345L24.8275 15.392L24.2105 13.998H21.3815V14.635L21.0625 13.998H18.6445L17.5285 16.563V2.646H50.4925L50.4835 20.661Z" fill="black"/>
</svg>
