<svg width="62" height="39" viewBox="0 0 62 39" fill="none" xmlns="http://www.w3.org/2000/svg">
<path d="M56.532 38.371H4.632C3.40402 38.3699 2.22663 37.8817 1.35822 37.0135C0.489805 36.1453 0.00132395 34.968 0 33.74V4.632C0.00158758 3.40401 0.49012 2.22675 1.35844 1.35843C2.22677 0.490104 3.40401 0.00158758 4.632 0H56.532C57.76 0.00132395 58.9373 0.48979 59.8055 1.3582C60.6737 2.22661 61.1619 3.40402 61.163 4.632V33.74C61.1619 34.9679 60.6737 36.1452 59.8055 37.0134C58.9372 37.8817 57.7599 38.3699 56.532 38.371ZM4.632 0.391006C3.50746 0.391801 2.42922 0.838864 1.63405 1.63403C0.838879 2.4292 0.391801 3.50746 0.391006 4.632V33.74C0.392331 34.8642 0.839638 35.9419 1.63475 36.7367C2.42986 37.5314 3.50781 37.9782 4.632 37.979H56.532C57.6559 37.9777 58.7333 37.5306 59.528 36.736C60.3227 35.9413 60.7697 34.8639 60.771 33.74V4.632C60.7702 3.50781 60.3234 2.42986 59.5287 1.63475C58.7339 0.839638 57.6562 0.392331 56.532 0.391006H4.632Z" fill="black"/>
<rect x="5" y="5" width="6" height="16" fill="black"/>
<rect x="46" y="5" width="5" height="16" fill="black"/>
<rect x="17" y="5" width="6" height="16" fill="black"/>
<rect x="25" y="5" width="6" height="16" fill="black"/>
<rect x="13" y="5" width="2" height="16" fill="black"/>
<rect x="54" y="5" width="2" height="16" fill="black"/>
<rect x="33" y="5" width="3" height="16" fill="black"/>
<rect x="41" y="5" width="3" height="16" fill="black"/>
<rect x="38" y="5" width="1" height="16" fill="black"/>
<path d="M11.6855 34V25.4688H14.3223C15.2129 25.4688 15.8887 25.668 16.3496 26.0664C16.8145 26.4609 17.0469 27.041 17.0469 27.8066C17.0469 28.2402 16.9512 28.6133 16.7598 28.9258C16.5684 29.2383 16.3066 29.4668 15.9746 29.6113C16.3574 29.7207 16.6523 29.9414 16.8594 30.2734C17.0664 30.6016 17.1699 31.0078 17.1699 31.4922C17.1699 32.3203 16.9414 32.9453 16.4844 33.3672C16.0312 33.7891 15.373 34 14.5098 34H11.6855ZM13.4082 30.291V32.5703H14.5098C14.8184 32.5703 15.0527 32.4746 15.2129 32.2832C15.373 32.0918 15.4531 31.8203 15.4531 31.4688C15.4531 30.7031 15.1758 30.3105 14.6211 30.291H13.4082ZM13.4082 29.0371H14.3047C14.9805 29.0371 15.3184 28.6875 15.3184 27.9883C15.3184 27.6016 15.2402 27.3242 15.084 27.1562C14.9277 26.9883 14.6738 26.9043 14.3223 26.9043H13.4082V29.0371ZM24.4297 30.502C24.4297 31.6465 24.1582 32.5352 23.6152 33.168C23.0762 33.8008 22.3262 34.1172 21.3652 34.1172C20.4082 34.1172 19.6562 33.8047 19.1094 33.1797C18.5625 32.5508 18.2852 31.6719 18.2773 30.543V29.084C18.2773 27.9121 18.5488 26.998 19.0918 26.3418C19.6348 25.6816 20.3887 25.3516 21.3535 25.3516C22.3027 25.3516 23.0508 25.6758 23.5977 26.3242C24.1445 26.9688 24.4219 27.875 24.4297 29.043V30.502ZM22.7012 29.0723C22.7012 28.3027 22.5918 27.7305 22.373 27.3555C22.1543 26.9805 21.8145 26.793 21.3535 26.793C20.8965 26.793 20.5586 26.9746 20.3398 27.3379C20.1211 27.6973 20.0078 28.2461 20 28.9844V30.502C20 31.248 20.1113 31.7988 20.334 32.1543C20.5566 32.5059 20.9004 32.6816 21.3652 32.6816C21.8145 32.6816 22.1484 32.5098 22.3672 32.166C22.5859 31.8184 22.6973 31.2812 22.7012 30.5547V29.0723ZM27.3887 32.5703H30.4121V34H25.666V25.4688H27.3887V32.5703ZM35.8145 30.3086H33.1309V32.5703H36.3066V34H31.4082V25.4688H36.2949V26.9043H33.1309V28.9199H35.8145V30.3086ZM42.9453 26.9043H40.8359V34H39.1074V26.9043H37.0332V25.4688H42.9453V26.9043ZM49.7773 30.502C49.7773 31.6465 49.5059 32.5352 48.9629 33.168C48.4238 33.8008 47.6738 34.1172 46.7129 34.1172C45.7559 34.1172 45.0039 33.8047 44.457 33.1797C43.9102 32.5508 43.6328 31.6719 43.625 30.543V29.084C43.625 27.9121 43.8965 26.998 44.4395 26.3418C44.9824 25.6816 45.7363 25.3516 46.7012 25.3516C47.6504 25.3516 48.3984 25.6758 48.9453 26.3242C49.4922 26.9688 49.7695 27.875 49.7773 29.043V30.502ZM48.0488 29.0723C48.0488 28.3027 47.9395 27.7305 47.7207 27.3555C47.502 26.9805 47.1621 26.793 46.7012 26.793C46.2441 26.793 45.9062 26.9746 45.6875 27.3379C45.4688 27.6973 45.3555 28.2461 45.3477 28.9844V30.502C45.3477 31.248 45.459 31.7988 45.6816 32.1543C45.9043 32.5059 46.248 32.6816 46.7129 32.6816C47.1621 32.6816 47.4961 32.5098 47.7148 32.166C47.9336 31.8184 48.0449 31.2812 48.0488 30.5547V29.0723Z" fill="black"/>
</svg>
