<svg width="62" height="39" viewBox="0 0 62 39" fill="none" xmlns="http://www.w3.org/2000/svg">
<path d="M56.531 38.373H4.631C3.40327 38.3714 2.22628 37.883 1.35815 37.0149C0.49001 36.1467 0.00158758 34.9697 0 33.742V4.632C0.001323 3.4041 0.489622 2.22686 1.35779 1.35851C2.22595 0.490152 3.4031 0.00158812 4.631 0H56.531C57.759 0.00132395 58.9363 0.489805 59.8045 1.35822C60.6727 2.22663 61.1609 3.40402 61.162 4.632V33.742C61.1607 34.9698 60.6723 36.147 59.8042 37.0152C58.936 37.8833 57.7588 38.3717 56.531 38.373ZM4.633 0.392014C3.50889 0.393602 2.4313 0.840992 1.63662 1.63605C0.841939 2.4311 0.395063 3.5089 0.394005 4.63301V33.743C0.395328 34.8669 0.842359 35.9443 1.63704 36.739C2.43172 37.5336 3.50916 37.9807 4.633 37.982H56.533C57.6569 37.9807 58.7343 37.5336 59.529 36.739C60.3236 35.9443 60.7707 34.8669 60.772 33.743V4.63301C60.7709 3.5089 60.3241 2.4311 59.5294 1.63605C58.7347 0.840992 57.6571 0.393602 56.533 0.392014H4.633Z" fill="black"/>
<path d="M37.4528 8.31689H23.7108C20.8279 8.31689 18.0631 9.46214 16.0246 11.5007C13.986 13.5392 12.8408 16.304 12.8408 19.1869C12.8408 22.0698 13.986 24.8346 16.0246 26.8732C18.0631 28.9117 20.8279 30.0569 23.7108 30.0569H37.4528C40.3357 30.0569 43.1006 28.9117 45.1391 26.8732C47.1776 24.8346 48.3228 22.0698 48.3228 19.1869C48.3228 16.304 47.1776 13.5392 45.1391 11.5007C43.1006 9.46214 40.3357 8.31689 37.4528 8.31689ZM23.7108 29.8169C21.6088 29.8169 19.554 29.1936 17.8062 28.0258C16.0585 26.8579 14.6962 25.1981 13.8918 23.2561C13.0874 21.314 12.8769 19.1771 13.287 17.1155C13.6971 15.0538 14.7093 13.1601 16.1957 11.6738C17.682 10.1874 19.5758 9.17519 21.6374 8.76511C23.699 8.35502 25.836 8.5655 27.778 9.3699C29.72 10.1743 31.3799 11.5365 32.5477 13.2843C33.7155 15.0321 34.3388 17.0869 34.3388 19.1889C34.3387 20.5845 34.0637 21.9663 33.5295 23.2556C32.9953 24.5449 32.2124 25.7163 31.2255 26.703C30.2386 27.6897 29.067 28.4724 27.7777 29.0063C26.4883 29.5403 25.1064 29.815 23.7108 29.8149V29.8169Z" fill="black"/>
<path d="M17.2129 19.1868C17.213 20.5367 17.6335 21.8531 18.4159 22.9532C19.1983 24.0534 20.3038 24.8826 21.5789 25.3258L21.5659 13.0508C20.2937 13.496 19.1913 14.3257 18.4115 15.425C17.6316 16.5243 17.2127 17.8389 17.2129 19.1868Z" fill="black"/>
<path d="M25.8519 13.0508L25.8389 25.3258C27.113 24.8829 28.2179 24.0547 29.0002 22.9558C29.7825 21.8569 30.2036 20.5418 30.205 19.1929C30.2065 17.844 29.7882 16.528 29.0082 15.4275C28.2282 14.3269 27.1251 13.4963 25.8519 13.0508Z" fill="black"/>
</svg>
