<svg width="62" height="39" viewBox="0 0 62 39" fill="none" xmlns="http://www.w3.org/2000/svg">
<path d="M56.532 38.371H4.632C3.40402 38.3699 2.22663 37.8817 1.35822 37.0135C0.489805 36.1453 0.00132395 34.968 0 33.74V4.632C0.00158758 3.40401 0.49012 2.22675 1.35844 1.35843C2.22677 0.490104 3.40401 0.00158758 4.632 0H56.532C57.76 0.00132395 58.9373 0.48979 59.8055 1.3582C60.6737 2.22661 61.1619 3.40402 61.163 4.632V33.74C61.1619 34.9679 60.6737 36.1452 59.8055 37.0134C58.9372 37.8817 57.7599 38.3699 56.532 38.371ZM4.632 0.391006C3.50746 0.391801 2.42922 0.838864 1.63405 1.63403C0.838879 2.4292 0.391801 3.50746 0.391006 4.632V33.74C0.392331 34.8642 0.839638 35.9419 1.63475 36.7367C2.42986 37.5314 3.50781 37.9782 4.632 37.979H56.532C57.6559 37.9777 58.7333 37.5306 59.528 36.736C60.3227 35.9413 60.7697 34.8639 60.771 33.74V4.632C60.7702 3.50781 60.3234 2.42986 59.5287 1.63475C58.7339 0.839638 57.6562 0.392331 56.532 0.391006H4.632Z" fill="black"/>
<path d="M17.3126 15.0612C17.8966 14.8673 18.515 14.7992 19.1272 14.8616C19.7393 14.9239 20.3313 15.1152 20.8642 15.4229C21.397 15.7307 21.8587 16.1478 22.2186 16.6468C22.5786 17.1459 22.8288 17.7155 22.9526 18.3182L25.9326 17.7092C25.7232 16.6845 25.2986 15.7159 24.6871 14.8674C24.0756 14.0189 23.2911 13.3098 22.3853 12.787C21.4794 12.2641 20.473 11.9394 19.4324 11.8343C18.3918 11.7292 17.3407 11.8461 16.3486 12.1772L17.3126 15.0612Z" fill="black"/>
<path d="M13.7967 24.7223L15.8127 22.4423C15.3516 22.0346 14.9824 21.5336 14.7295 20.9724C14.4766 20.4113 14.3459 19.8028 14.3459 19.1873C14.3459 18.5718 14.4766 17.9634 14.7295 17.4022C14.9824 16.8411 15.3516 16.34 15.8127 15.9323L13.7967 13.6533C13.0127 14.3466 12.3849 15.1985 11.955 16.1526C11.5251 17.1067 11.3027 18.1413 11.3027 19.1878C11.3027 20.2343 11.5251 21.2689 11.955 22.2231C12.3849 23.1772 13.0127 24.0291 13.7967 24.7223Z" fill="black"/>
<path d="M22.9507 20.0583C22.8263 20.6605 22.5759 21.2295 22.2158 21.7278C21.8557 22.2262 21.3942 22.6427 20.8616 22.9499C20.3291 23.2571 19.7375 23.448 19.1258 23.5102C18.5141 23.5723 17.8962 23.5042 17.3127 23.3103L16.3467 26.1964C17.3384 26.5264 18.3889 26.6426 19.4288 26.5372C20.4687 26.4319 21.4745 26.1075 22.38 25.5853C23.2854 25.0631 24.07 24.3551 24.682 23.5078C25.294 22.6604 25.7196 21.6931 25.9307 20.6694L22.9507 20.0583Z" fill="black"/>
<path d="M28.5345 22.5382C28.4183 22.3449 28.3145 22.1445 28.2235 21.9382C27.7609 20.8548 27.7382 19.6339 28.1603 18.5341C28.5823 17.4343 29.4159 16.542 30.4845 16.0462C31.1523 15.7586 31.8794 15.6358 32.6046 15.688C33.3298 15.7402 34.0318 15.9659 34.6515 16.3462C35.5061 16.865 36.1616 17.656 36.5125 18.5922C36.5705 18.7252 36.6185 18.8672 36.6685 18.9922L28.5345 22.5382ZM31.2495 17.8072C30.7911 17.9979 30.409 18.3354 30.1629 18.7666C29.9168 19.1978 29.8206 19.6985 29.8895 20.1901L33.9805 18.4291C33.6717 18.0216 33.2292 17.7358 32.7307 17.6221C32.2322 17.5083 31.7095 17.5739 31.2545 17.8072H31.2495ZM34.4905 21.6381L34.4055 21.5801C34.1427 21.9945 33.7586 22.3178 33.3055 22.5062C32.9309 22.705 32.5058 22.7883 32.0838 22.7458C31.6618 22.7033 31.2619 22.5367 30.9345 22.2671L30.8785 22.3532L29.8345 23.9082C30.0929 24.0873 30.3694 24.2388 30.6595 24.3601C31.6161 24.7452 32.676 24.7901 33.6617 24.4871C34.6474 24.1842 35.4992 23.552 36.0745 22.6961L34.4905 21.6381Z" fill="black"/>
<path d="M39.5175 13.7632V22.3952L40.8585 22.9402L40.0965 24.7192L38.6145 24.1022C38.3174 23.9726 38.0642 23.7597 37.8855 23.4892C37.6875 23.1682 37.588 22.7962 37.5995 22.4192V13.7632H39.5175Z" fill="black"/>
<path d="M42.9933 20.1951C42.9934 19.846 43.0683 19.5009 43.213 19.1831C43.3577 18.8654 43.5689 18.5823 43.8323 18.3531L42.4553 16.8181C41.9772 17.2413 41.5944 17.7612 41.3323 18.3433C41.0701 18.9255 40.9346 19.5567 40.9346 20.1951C40.9346 20.8336 41.0701 21.4647 41.3323 22.0469C41.5944 22.6291 41.9772 23.1489 42.4553 23.5721L43.8313 22.0351C43.5682 21.8061 43.3573 21.5234 43.2127 21.206C43.0682 20.8886 42.9933 20.5439 42.9933 20.1951Z" fill="black"/>
<path d="M45.4398 22.6458C45.1761 22.6449 44.9141 22.602 44.6638 22.5188L44.0068 24.4738C44.4676 24.629 44.9506 24.7077 45.4368 24.7068C46.4759 24.7078 47.4834 24.3501 48.2892 23.6942C49.095 23.0383 49.6498 22.1244 49.8598 21.1069L47.8398 20.6938C47.7251 21.2455 47.4238 21.7408 46.9867 22.0963C46.5496 22.4519 46.0033 22.6459 45.4398 22.6458Z" fill="black"/>
<path d="M45.4456 15.687C44.96 15.6868 44.4776 15.7644 44.0166 15.917L44.6676 17.875C44.9964 17.7656 45.3447 17.7273 45.6895 17.7624C46.0343 17.7976 46.3676 17.9055 46.6676 18.079C46.9676 18.2526 47.2273 18.4877 47.4297 18.7691C47.6321 19.0504 47.7725 19.3714 47.8416 19.711L49.8636 19.301C49.6564 18.2818 49.1035 17.3654 48.2985 16.7069C47.4935 16.0483 46.4857 15.6881 45.4456 15.687Z" fill="black"/>
</svg>
