<svg width="62" height="39" viewBox="0 0 62 39" fill="none" xmlns="http://www.w3.org/2000/svg">
<path d="M56.532 38.373H4.632C3.4041 38.3717 2.22685 37.8834 1.35849 37.0152C0.490141 36.147 0.00158812 34.9699 0 33.742V4.632C0.00158758 3.40401 0.490108 2.22677 1.35843 1.35844C2.22676 0.49012 3.404 0.00158758 4.632 0H56.532C57.76 0.00158758 58.9372 0.49012 59.8056 1.35844C60.6739 2.22677 61.1624 3.40401 61.164 4.632V33.742C61.1624 34.9699 60.6739 36.147 59.8055 37.0152C58.9371 37.8834 57.7599 38.3717 56.532 38.373ZM4.635 0.392014C3.51054 0.393073 2.43244 0.840218 1.63733 1.63533C0.842213 2.43044 0.395056 3.50855 0.393997 4.63301V33.743C0.395321 34.8672 0.842633 35.9449 1.63774 36.7397C2.43286 37.5344 3.51081 37.9812 4.635 37.982H56.535C57.6591 37.981 58.7369 37.5341 59.532 36.7394C60.327 35.9447 60.7744 34.8671 60.776 33.743V4.63301C60.7747 3.50863 60.3274 2.43069 59.5324 1.63564C58.7373 0.84058 57.6594 0.393337 56.535 0.392014H4.635Z" fill="black"/>
<path d="M20.5452 31.392V29.7659C20.5547 29.6293 20.5349 29.4921 20.4872 29.3637C20.4395 29.2353 20.3649 29.1185 20.2684 29.0212C20.172 28.9239 20.0559 28.8483 19.9279 28.7995C19.7999 28.7506 19.6629 28.7296 19.5262 28.7379C19.3474 28.7261 19.1686 28.7626 19.0087 28.8435C18.8488 28.9244 18.7136 29.0469 18.6172 29.198C18.529 29.0515 18.4029 28.9315 18.2523 28.8505C18.1017 28.7696 17.932 28.7307 17.7612 28.7379C17.6123 28.73 17.4639 28.7612 17.3307 28.8284C17.1976 28.8956 17.0843 28.9965 17.0022 29.121V28.802H16.4392V31.392H17.0092V29.955C16.996 29.8662 17.0028 29.7757 17.0292 29.69C17.0556 29.6043 17.1009 29.5256 17.1617 29.4597C17.2225 29.3938 17.2974 29.3423 17.3807 29.3091C17.464 29.276 17.5537 29.2619 17.6432 29.2679C18.0152 29.2679 18.2062 29.5119 18.2062 29.9499V31.3909H18.7742V29.9539C18.7628 29.8656 18.771 29.7758 18.7981 29.6909C18.8252 29.606 18.8705 29.5281 18.9309 29.4626C18.9914 29.3971 19.0654 29.3456 19.1479 29.3118C19.2303 29.278 19.3192 29.2627 19.4082 29.267C19.7932 29.267 19.9782 29.5109 19.9782 29.9489V31.39L20.5452 31.392ZM28.9642 28.802H28.0422V28.0119H27.4742V28.7979H26.9482V29.313H27.4742V30.4949C27.4742 31.0949 27.7072 31.453 28.3742 31.453C28.6217 31.4534 28.8643 31.3841 29.0742 31.2529L28.9132 30.7709C28.7614 30.861 28.5895 30.9115 28.4132 30.918C28.1312 30.918 28.0392 30.7439 28.0392 30.4839V29.3119H28.9612L28.9642 28.802ZM33.7642 28.7379C33.627 28.7342 33.4913 28.7674 33.3713 28.8341C33.2513 28.9008 33.1515 28.9985 33.0822 29.1169V28.802H32.5252V31.392H33.0882V29.94C33.0882 29.513 33.2712 29.2729 33.6402 29.2729C33.7607 29.2719 33.8803 29.2943 33.9922 29.3389L34.1642 28.8089C34.036 28.7624 33.9006 28.7387 33.7642 28.739V28.7379ZM26.5002 29.009C26.1816 28.8188 25.8149 28.7247 25.4442 28.7379C24.7882 28.7379 24.3662 29.0509 24.3662 29.5659C24.3662 29.9889 24.6812 30.248 25.2602 30.33L25.5262 30.369C25.8342 30.411 25.9812 30.493 25.9812 30.64C25.9812 30.84 25.7742 30.953 25.3892 30.953C25.0798 30.9623 24.7764 30.8668 24.5282 30.6819L24.2622 31.1219C24.5909 31.3505 24.984 31.4679 25.3842 31.457C26.1322 31.457 26.5662 31.105 26.5662 30.612C26.5662 30.158 26.2232 29.9189 25.6602 29.8369L25.3962 29.7989C25.1522 29.7659 24.9562 29.7179 24.9562 29.5439C24.9562 29.3549 25.1412 29.244 25.4492 29.244C25.733 29.248 26.0111 29.3244 26.2572 29.466L26.5002 29.009ZM41.5942 28.7379C41.4567 28.734 41.3206 28.7671 41.2003 28.8337C41.0799 28.9004 40.9797 28.9982 40.9102 29.1169V28.802H40.3532V31.392H40.9162V29.94C40.9162 29.513 41.1012 29.2729 41.4682 29.2729C41.5887 29.2717 41.7083 29.2941 41.8202 29.3389L41.9942 28.8089C41.8659 28.7626 41.7306 28.7389 41.5942 28.739V28.7379ZM34.3342 30.0959C34.3266 30.2784 34.3574 30.4605 34.4244 30.6304C34.4915 30.8003 34.5934 30.9543 34.7236 31.0824C34.8538 31.2105 35.0094 31.3099 35.1803 31.3743C35.3513 31.4386 35.5338 31.4664 35.7162 31.4559C36.0541 31.4731 36.3862 31.3632 36.6472 31.1479L36.3762 30.6929C36.1812 30.8416 35.9434 30.9234 35.6982 30.9259C35.4871 30.9132 35.2888 30.8204 35.1438 30.6664C34.9988 30.5125 34.9181 30.309 34.9181 30.0975C34.9181 29.886 34.9988 29.6824 35.1438 29.5285C35.2888 29.3745 35.4871 29.2817 35.6982 29.2689C35.9434 29.2715 36.1812 29.3533 36.3762 29.502L36.6472 29.0469C36.3862 28.8316 36.0541 28.7218 35.7162 28.739C35.534 28.7285 35.3516 28.7562 35.1808 28.8205C35.01 28.8847 34.8545 28.9839 34.7244 29.1118C34.5942 29.2397 34.4923 29.3934 34.4251 29.5631C34.3579 29.7328 34.3269 29.9146 34.3342 30.097V30.0959ZM39.6112 30.0959V28.802H39.0502V29.1169C38.9542 28.993 38.83 28.894 38.6878 28.828C38.5456 28.7621 38.3897 28.7312 38.2332 28.7379C37.8855 28.7568 37.5583 28.9082 37.3188 29.161C37.0794 29.4138 36.9459 29.7488 36.9459 30.097C36.9459 30.4451 37.0794 30.7801 37.3188 31.0329C37.5583 31.2857 37.8855 31.4371 38.2332 31.4559C38.3897 31.4627 38.5456 31.4318 38.6878 31.3659C38.83 31.2999 38.9542 31.2008 39.0502 31.0769V31.392H39.6152L39.6112 30.0959ZM37.5112 30.0959C37.52 29.9432 37.5733 29.7964 37.6645 29.6735C37.7557 29.5507 37.8809 29.4572 38.0246 29.4047C38.1683 29.3521 38.3242 29.3427 38.4731 29.3777C38.6221 29.4127 38.7576 29.4905 38.8628 29.6015C38.9681 29.7126 39.0386 29.852 39.0656 30.0026C39.0926 30.1532 39.0749 30.3084 39.0148 30.4491C38.9547 30.5898 38.8547 30.7098 38.7272 30.7944C38.5997 30.8789 38.4502 30.9243 38.2972 30.925C38.1898 30.9266 38.0833 30.9059 37.9843 30.8643C37.8854 30.8226 37.7961 30.7609 37.7222 30.683C37.6484 30.605 37.5915 30.5126 37.5551 30.4116C37.5188 30.3105 37.5038 30.2031 37.5112 30.0959ZM30.7112 28.7379C30.3593 28.7555 30.028 28.909 29.787 29.166C29.546 29.423 29.4141 29.7635 29.4192 30.1158C29.4242 30.4681 29.5658 30.8046 29.8141 31.0546C30.0624 31.3046 30.3979 31.4485 30.7502 31.4559C31.1365 31.4697 31.5143 31.3404 31.8112 31.093L31.5342 30.677C31.3204 30.8487 31.0554 30.9441 30.7812 30.948C30.5949 30.9637 30.4099 30.9064 30.2652 30.788C30.1205 30.6697 30.0276 30.4996 30.0062 30.3139H31.9292C31.9352 30.2439 31.9402 30.1729 31.9402 30.0959C31.9564 29.9243 31.9368 29.7512 31.8824 29.5876C31.8281 29.4241 31.7402 29.2736 31.6245 29.1458C31.5088 29.0181 31.3677 28.9158 31.2103 28.8456C31.0529 28.7754 30.8826 28.7387 30.7102 28.7379H30.7112ZM30.7002 29.2379C30.8705 29.2347 31.0351 29.2991 31.1581 29.417C31.281 29.5349 31.3522 29.6967 31.3562 29.8669H30.0212C30.0308 29.6931 30.108 29.5299 30.2364 29.4124C30.3648 29.2948 30.5342 29.2322 30.7082 29.2379H30.7002ZM44.8352 30.0939V27.759H44.2722V29.112C44.1761 28.988 44.0516 28.8889 43.9093 28.8229C43.767 28.757 43.6109 28.7261 43.4542 28.733C43.1065 28.7518 42.7793 28.9032 42.5398 29.156C42.3004 29.4088 42.1669 29.7438 42.1669 30.0919C42.1669 30.4401 42.3004 30.7751 42.5398 31.0279C42.7793 31.2807 43.1065 31.4321 43.4542 31.451C43.6109 31.4578 43.767 31.4269 43.9093 31.361C44.0516 31.295 44.1761 31.1959 44.2722 31.0719V31.3869H44.8352V30.0939ZM42.7352 30.0939C42.7438 29.9409 42.797 29.7937 42.8883 29.6706C42.9795 29.5474 43.1049 29.4537 43.2488 29.4009C43.3927 29.3482 43.5489 29.3387 43.6982 29.3737C43.8474 29.4087 43.9831 29.4866 44.0886 29.5978C44.1941 29.7091 44.2647 29.8488 44.2917 29.9997C44.3187 30.1506 44.3009 30.306 44.2406 30.447C44.1802 30.5879 44.08 30.708 43.9521 30.7926C43.8243 30.8772 43.6745 30.9225 43.5212 30.9229C43.4139 30.9244 43.3074 30.9037 43.2085 30.862C43.1096 30.8203 43.0204 30.7585 42.9466 30.6806C42.8727 30.6027 42.8158 30.5104 42.7794 30.4094C42.7431 30.3084 42.728 30.201 42.7352 30.0939ZM23.7102 30.0939V28.802H23.1472V29.1169C23.0508 28.9932 22.9264 28.8943 22.7841 28.8284C22.6418 28.7624 22.4859 28.7314 22.3292 28.7379C21.9815 28.7568 21.6543 28.9082 21.4148 29.161C21.1754 29.4138 21.0419 29.7488 21.0419 30.097C21.0419 30.4451 21.1754 30.7801 21.4148 31.0329C21.6543 31.2857 21.9815 31.4371 22.3292 31.4559C22.4859 31.4624 22.6418 31.4314 22.7841 31.3655C22.9264 31.2996 23.0508 31.2007 23.1472 31.0769V31.392H23.7102V30.0939ZM21.6102 30.0939C21.619 29.9412 21.6723 29.7944 21.7635 29.6715C21.8547 29.5487 21.9799 29.4552 22.1236 29.4027C22.2673 29.3501 22.4232 29.3407 22.5721 29.3757C22.7211 29.4107 22.8566 29.4885 22.9618 29.5995C23.0671 29.7106 23.1376 29.85 23.1646 30.0006C23.1916 30.1512 23.1739 30.3064 23.1138 30.4471C23.0537 30.5878 22.9537 30.7078 22.8262 30.7924C22.6987 30.8769 22.5492 30.9223 22.3962 30.9229C22.2901 30.9228 22.1852 30.9008 22.0879 30.8585C21.9906 30.8162 21.903 30.7544 21.8306 30.6768C21.7582 30.5993 21.7024 30.5078 21.6667 30.4079C21.631 30.308 21.6162 30.2018 21.6232 30.0959L21.6102 30.0939ZM45.7682 31.0139C45.8026 31.0136 45.8366 31.0204 45.8682 31.0339C45.8996 31.047 45.9284 31.0656 45.9532 31.0889C45.977 31.1126 45.9957 31.1408 46.0082 31.1719C46.0278 31.2188 46.0331 31.2705 46.0233 31.3203C46.0135 31.3702 45.9891 31.416 45.9532 31.4519C45.9284 31.4756 45.8997 31.4945 45.8682 31.5079C45.8366 31.5215 45.8026 31.5283 45.7682 31.528C45.7336 31.5283 45.6993 31.5217 45.6673 31.5084C45.6354 31.4952 45.6064 31.4756 45.5822 31.451C45.5587 31.4276 45.5398 31.4001 45.5262 31.3699C45.5126 31.3384 45.5056 31.3043 45.5056 31.2699C45.5056 31.2356 45.5126 31.2015 45.5262 31.17C45.5397 31.1391 45.5586 31.111 45.5822 31.0869C45.606 31.0633 45.6342 31.0447 45.6652 31.0319C45.7018 31.0165 45.7415 31.0096 45.7812 31.0119L45.7682 31.0139ZM45.7682 31.4729C45.795 31.4726 45.8214 31.4672 45.8462 31.457C45.8698 31.4465 45.8912 31.4315 45.9092 31.4129C45.928 31.3952 45.9424 31.3733 45.9512 31.349C45.9621 31.3244 45.9676 31.2978 45.9672 31.2709C45.9673 31.2441 45.9619 31.2176 45.9512 31.1929C45.9311 31.1485 45.8956 31.113 45.8512 31.093C45.8265 31.0825 45.8 31.0771 45.7732 31.0771C45.7464 31.0771 45.7199 31.0825 45.6952 31.093C45.6708 31.1017 45.6489 31.1161 45.6312 31.1349C45.6126 31.1525 45.5983 31.1741 45.5892 31.198C45.5785 31.2226 45.5731 31.2491 45.5732 31.276C45.5728 31.3028 45.5782 31.3294 45.5892 31.354C45.5979 31.3783 45.6123 31.4002 45.6312 31.418C45.6492 31.4369 45.671 31.4519 45.6952 31.4619C45.7226 31.4722 45.7519 31.4766 45.7812 31.4749L45.7682 31.4729ZM45.7842 31.151C45.8095 31.1492 45.8345 31.157 45.8542 31.1729C45.8626 31.1793 45.8692 31.1877 45.8736 31.1973C45.878 31.2069 45.8799 31.2174 45.8792 31.2279C45.8796 31.237 45.8781 31.246 45.8749 31.2545C45.8716 31.2629 45.8666 31.2705 45.8602 31.2769C45.8443 31.2917 45.8238 31.3006 45.8022 31.302L45.8802 31.3909H45.8192L45.7472 31.302H45.7242V31.3909H45.6722V31.1519L45.7842 31.151ZM45.7252 31.196V31.2599H45.7842C45.795 31.26 45.8057 31.2573 45.8152 31.252C45.8192 31.2492 45.8225 31.2454 45.8248 31.2411C45.8271 31.2367 45.8282 31.2319 45.8282 31.2269C45.8279 31.2224 45.8266 31.2179 45.8244 31.2139C45.8221 31.21 45.819 31.2065 45.8152 31.2039C45.8057 31.1986 45.795 31.1959 45.7842 31.196H45.7252ZM45.4202 22.7769V22.4619H45.5472V22.3979H45.2252V22.4619H45.3522V22.7769H45.4202ZM46.0462 22.7769V22.3979H45.9462L45.8322 22.6579L45.7192 22.3979H45.6192V22.7769H45.6882V22.491L45.7942 22.7379H45.8682L45.9742 22.491V22.7769H46.0462ZM29.7202 24.6629C29.7952 24.7289 29.8762 24.7929 29.9552 24.8569C28.486 25.8337 26.7794 26.3936 25.0172 26.477C23.2549 26.5605 21.503 26.1644 19.9481 25.3309C18.3932 24.4975 17.0935 23.2578 16.1874 21.7441C15.2813 20.2303 14.8027 18.4992 14.8027 16.735C14.8027 14.9707 15.2813 13.2396 16.1874 11.7258C17.0935 10.2121 18.3932 8.97243 19.9481 8.13896C21.503 7.30549 23.2549 6.9094 25.0172 6.99287C26.7794 7.07634 28.486 7.63624 29.9552 8.61294C29.8772 8.67694 29.7972 8.74094 29.7202 8.80694C28.5852 9.79259 27.675 11.0105 27.0513 12.3782C26.4275 13.746 26.1047 15.2317 26.1047 16.735C26.1047 18.2382 26.4275 19.7239 27.0513 21.0917C27.675 22.4594 28.5852 23.6773 29.7202 24.6629ZM36.6102 6.98195C34.6884 6.97867 32.8089 7.54634 31.2102 8.61294C31.2882 8.67694 31.3682 8.74094 31.4452 8.80694C32.5802 9.79259 33.4904 11.0105 34.1141 12.3782C34.7379 13.746 35.0607 15.2317 35.0607 16.735C35.0607 18.2382 34.7379 19.7239 34.1141 21.0917C33.4904 22.4594 32.5802 23.6773 31.4452 24.6629C31.3702 24.7289 31.2892 24.7929 31.2102 24.8629C32.4777 25.7052 33.9247 26.2392 35.4354 26.4222C36.9462 26.6052 38.4788 26.4321 39.9108 25.9167C41.3427 25.4014 42.6341 24.5582 43.6818 23.4544C44.7295 22.3507 45.5044 21.0171 45.9445 19.5603C46.3845 18.1035 46.4776 16.5639 46.2162 15.0647C45.9548 13.5655 45.3462 12.1483 44.4391 10.9264C43.5319 9.70447 42.3515 8.7118 40.992 8.02775C39.6326 7.34371 38.132 6.98727 36.6102 6.98695V6.98195Z" fill="black"/>
</svg>
