<svg width="62" height="39" viewBox="0 0 62 39" fill="none" xmlns="http://www.w3.org/2000/svg">
<path d="M56.526 38.371H4.632C3.4041 38.3697 2.22686 37.8814 1.35851 37.0132C0.490152 36.1451 0.00158812 34.9679 0 33.74V4.632C0.00185146 3.40409 0.490467 2.227 1.35873 1.35873C2.227 0.490467 3.40409 0.00185146 4.632 0H56.532C57.7599 0.00158812 58.937 0.490152 59.8052 1.35851C60.6734 2.22686 61.1617 3.4041 61.163 4.632V33.74C61.1617 34.9689 60.6725 36.1469 59.803 37.0153C58.9335 37.8836 57.7549 38.3713 56.526 38.371ZM4.62601 0.391006C3.50155 0.392066 2.42345 0.839226 1.62834 1.63434C0.833229 2.42945 0.386069 3.50755 0.38501 4.632V33.74C0.386598 34.8641 0.833989 35.9417 1.62904 36.7364C2.4241 37.5311 3.50189 37.9779 4.62601 37.979H56.526C57.6498 37.9777 58.7273 37.5306 59.522 36.736C60.3167 35.9413 60.7637 34.8639 60.765 33.74V4.632C60.7642 3.50781 60.3174 2.42986 59.5227 1.63475C58.7279 0.839638 57.6502 0.392331 56.526 0.391006H4.62601Z" fill="black"/>
<path d="M26.8968 25.952C26.8268 25.952 26.7596 25.9242 26.7101 25.8747C26.6606 25.8252 26.6328 25.758 26.6328 25.688V17.088C26.6336 16.2587 26.9634 15.4635 27.5499 14.8771C28.1363 14.2906 28.9314 13.9608 29.7608 13.96H32.2988C33.126 13.9629 33.9183 14.2933 34.5025 14.879C35.0866 15.4646 35.415 16.2578 35.4158 17.085V18.913C35.4153 19.7424 35.0856 20.5378 34.4991 21.1243C33.9126 21.7108 33.1172 22.0405 32.2878 22.041H28.7028C28.6668 22.0432 28.6308 22.0381 28.5969 22.0258C28.563 22.0136 28.532 21.9945 28.5057 21.9698C28.4795 21.9452 28.4585 21.9154 28.4442 21.8823C28.4299 21.8492 28.4226 21.8135 28.4226 21.7775C28.4226 21.7415 28.4299 21.7058 28.4442 21.6727C28.4585 21.6397 28.4795 21.6099 28.5057 21.5852C28.532 21.5605 28.563 21.5414 28.5969 21.5292C28.6308 21.517 28.6668 21.5118 28.7028 21.514H32.2878C32.9774 21.514 33.6387 21.2401 34.1263 20.7525C34.6139 20.2649 34.8878 19.6036 34.8878 18.914V17.086C34.8878 16.3985 34.6155 15.739 34.1305 15.2518C33.6455 14.7645 32.9873 14.4892 32.2998 14.486H29.7618C29.0722 14.486 28.4109 14.7599 27.9233 15.2475C27.4357 15.7351 27.1618 16.3965 27.1618 17.086V25.686C27.1621 25.7209 27.1554 25.7556 27.1422 25.7879C27.129 25.8202 27.1095 25.8496 27.0848 25.8743C27.0602 25.8991 27.0309 25.9187 26.9986 25.932C26.9663 25.9453 26.9317 25.9521 26.8968 25.952ZM38.1378 22.087C38.1031 22.0871 38.0687 22.0804 38.0366 22.0672C38.0045 22.054 37.9754 22.0345 37.9508 22.01C37.9263 21.9854 37.9069 21.9563 37.8936 21.9242C37.8804 21.8921 37.8737 21.8577 37.8738 21.823V15.398C37.8735 15.1565 37.7775 14.9249 37.6067 14.7541C37.4359 14.5833 37.2043 14.4873 36.9628 14.487H35.8628C35.7927 14.487 35.7254 14.4591 35.6758 14.4095C35.6262 14.3599 35.5983 14.2927 35.5983 14.2225C35.5983 14.1524 35.6262 14.0851 35.6758 14.0355C35.7254 13.9859 35.7927 13.958 35.8628 13.958H36.9628C37.3443 13.9588 37.7099 14.1108 37.9795 14.3808C38.249 14.6507 38.4005 15.0165 38.4008 15.398V21.819C38.4013 21.8539 38.3949 21.8885 38.3819 21.9209C38.369 21.9533 38.3497 21.9827 38.3252 22.0076C38.3007 22.0324 38.2716 22.0521 38.2394 22.0656C38.2072 22.0791 38.1727 22.086 38.1378 22.086V22.087Z" fill="black"/>
<path d="M37.9023 13.2312L37.4023 12.7312C37.3429 12.6716 37.3096 12.5909 37.3096 12.5067C37.3096 12.4226 37.3429 12.3418 37.4023 12.2822L37.9023 11.7822C37.962 11.7228 38.0427 11.6895 38.1268 11.6895C38.211 11.6895 38.2917 11.7228 38.3513 11.7822L38.8513 12.2822C38.9108 12.3418 38.9441 12.4226 38.9441 12.5067C38.9441 12.5909 38.9108 12.6716 38.8513 12.7312L38.3513 13.2312C38.2917 13.2906 38.211 13.324 38.1268 13.324C38.0427 13.324 37.962 13.2906 37.9023 13.2312Z" fill="black"/>
<path d="M41.342 22.0311H40.25C40.1799 22.0311 40.1126 22.0032 40.063 21.9536C40.0134 21.904 39.9855 21.8367 39.9855 21.7666C39.9855 21.6964 40.0134 21.6291 40.063 21.5795C40.1126 21.5299 40.1799 21.5021 40.25 21.5021H41.342C41.8334 21.5003 42.3043 21.3053 42.653 20.9591L45.204 18.4051C45.4126 18.1961 45.6957 18.0785 45.991 18.0781C46.1372 18.0776 46.282 18.1063 46.4169 18.1625C46.5519 18.2186 46.6743 18.3011 46.777 18.4051L49.32 20.9501C49.4921 21.1222 49.6965 21.2587 49.9215 21.3515C50.1465 21.4443 50.3876 21.4918 50.631 21.4911H51.518C51.5881 21.4911 51.6554 21.5189 51.705 21.5685C51.7546 21.6181 51.7825 21.6854 51.7825 21.7556C51.7825 21.8257 51.7546 21.893 51.705 21.9426C51.6554 21.9922 51.5881 22.0201 51.518 22.0201H50.631C50.3179 22.0208 50.0078 21.9593 49.7187 21.8392C49.4296 21.719 49.1673 21.5425 48.947 21.3201L46.402 18.7751C46.2928 18.6655 46.1447 18.6037 45.99 18.6031C45.9132 18.6032 45.8372 18.6184 45.7664 18.6479C45.6955 18.6775 45.6312 18.7207 45.577 18.7751L43.028 21.3271C42.5808 21.7748 41.9748 22.0279 41.342 22.0311ZM45.991 17.9071C45.8448 17.9075 45.7 17.8788 45.5651 17.8227C45.4301 17.7665 45.3077 17.6841 45.205 17.5801L42.651 15.0261C42.303 14.6795 41.8322 14.4843 41.341 14.4831H40.249C40.213 14.4853 40.177 14.4801 40.1431 14.4679C40.1092 14.4556 40.0782 14.4366 40.0519 14.4119C40.0257 14.3872 40.0047 14.3574 39.9904 14.3243C39.9761 14.2913 39.9688 14.2556 39.9688 14.2196C39.9688 14.1835 39.9761 14.1479 39.9904 14.1148C40.0047 14.0817 40.0257 14.0519 40.0519 14.0272C40.0782 14.0025 40.1092 13.9835 40.1431 13.9713C40.177 13.959 40.213 13.9538 40.249 13.9561H41.341C41.9729 13.9585 42.5784 14.21 43.026 14.6561L45.578 17.2101C45.6872 17.3194 45.8354 17.3809 45.99 17.3811C46.1439 17.3804 46.2913 17.3189 46.4 17.2101L48.946 14.6651C49.1664 14.4427 49.4287 14.2663 49.7178 14.1461C50.0069 14.026 50.3169 13.9644 50.63 13.9651H51.517C51.5871 13.9651 51.6544 13.9929 51.704 14.0425C51.7536 14.0921 51.7815 14.1594 51.7815 14.2296C51.7815 14.2997 51.7536 14.367 51.704 14.4166C51.6544 14.4662 51.5871 14.4941 51.517 14.4941H50.63C50.3864 14.4935 50.1452 14.5411 49.9201 14.6343C49.6951 14.7275 49.4908 14.8644 49.319 15.0371L46.774 17.5821C46.6718 17.6862 46.5498 17.7688 46.4151 17.8249C46.2804 17.8811 46.1359 17.9097 45.99 17.9091L45.991 17.9071Z" fill="black"/>
<path d="M20.3891 23.398C20.1196 23.399 19.8525 23.3464 19.6035 23.2434C19.3544 23.1404 19.1282 22.989 18.9381 22.798L16.8441 20.704C16.7698 20.6334 16.6711 20.594 16.5686 20.594C16.4661 20.594 16.3674 20.6334 16.2931 20.704L14.1931 22.804C14.0026 22.9948 13.7762 23.146 13.527 23.249C13.2778 23.352 13.0107 23.4046 12.7411 23.404H12.3291L14.9821 26.057C15.38 26.4546 15.9195 26.678 16.4821 26.678C17.0447 26.678 17.5842 26.4546 17.9821 26.057L20.6421 23.397L20.3891 23.398Z" fill="black"/>
<path d="M12.7402 15.9881C13.0097 15.9872 13.2767 16.0397 13.5258 16.1427C13.7748 16.2457 14.001 16.3971 14.1912 16.5881L16.2912 18.6881C16.3645 18.7606 16.4635 18.8012 16.5667 18.8012C16.6698 18.8012 16.7688 18.7606 16.8422 18.6881L18.9362 16.5881C19.1263 16.397 19.3525 16.2456 19.6015 16.1427C19.8506 16.0397 20.1177 15.9871 20.3872 15.9881H20.6392L17.9792 13.3281C17.5813 12.9304 17.0417 12.707 16.4792 12.707C15.9166 12.707 15.3771 12.9304 14.9792 13.3281L12.3262 15.9811L12.7402 15.9881Z" fill="black"/>
<path d="M22.8436 18.1949L21.2345 16.5879C21.1984 16.6029 21.1597 16.6107 21.1205 16.6109H20.3895C20.0096 16.6119 19.6454 16.7624 19.3755 17.0299L17.2755 19.1299C17.1826 19.2238 17.0719 19.2983 16.95 19.3492C16.828 19.4 16.6972 19.4262 16.565 19.4262C16.4329 19.4262 16.3021 19.4 16.1801 19.3492C16.0582 19.2983 15.9475 19.2238 15.8546 19.1299L13.7545 17.0299C13.484 16.7623 13.1191 16.6118 12.7386 16.6109H11.8385C11.8015 16.6099 11.765 16.6025 11.7305 16.5889L10.1176 18.2019C9.92053 18.3989 9.76424 18.6327 9.65761 18.8901C9.55098 19.1474 9.49609 19.4233 9.49609 19.7019C9.49609 19.9805 9.55098 20.2563 9.65761 20.5137C9.76424 20.7711 9.92053 21.0049 10.1176 21.2019L11.7305 22.8149C11.765 22.8013 11.8015 22.7939 11.8385 22.7929H12.7386C13.1195 22.792 13.4846 22.6407 13.7545 22.3719L15.8546 20.2719C16.0461 20.0886 16.301 19.9863 16.5661 19.9863C16.8312 19.9863 17.086 20.0886 17.2775 20.2719L19.3775 22.3719C19.6474 22.6393 20.0116 22.7899 20.3916 22.7909H21.1225C21.1617 22.7911 21.2004 22.7989 21.2365 22.8139L22.8456 21.2069C23.2427 20.8087 23.4658 20.2693 23.4658 19.7069C23.4658 19.1445 23.2427 18.6051 22.8456 18.2069L22.8436 18.1949Z" fill="black"/>
<path d="M29.0797 24.9572C28.9469 24.9627 28.8152 24.9825 28.6866 25.0162V25.5402C28.7847 25.5742 28.8879 25.5911 28.9917 25.5902C29.2547 25.5902 29.3797 25.5022 29.3797 25.2712C29.3797 25.0402 29.2797 24.9562 29.0797 24.9562V24.9572ZM28.5977 25.9292V24.8932H28.6696L28.6777 24.9382C28.8118 24.9026 28.9491 24.8805 29.0876 24.8722C29.1834 24.8651 29.2786 24.8928 29.3557 24.9502C29.3984 24.9913 29.4312 25.0415 29.4518 25.0971C29.4724 25.1526 29.4802 25.2122 29.4747 25.2712C29.4796 25.3366 29.4667 25.4021 29.4373 25.4608C29.4079 25.5194 29.3631 25.569 29.3076 25.6042C29.213 25.6511 29.1083 25.6741 29.0027 25.6712C28.8958 25.671 28.7895 25.6545 28.6877 25.6222V25.9272L28.5977 25.9292Z" fill="black"/>
<path d="M30.1359 24.9529C29.8729 24.9529 29.7559 25.0339 29.7559 25.2659C29.7559 25.4979 29.8719 25.5899 30.1359 25.5899C30.3999 25.5899 30.5129 25.5099 30.5129 25.2789C30.5129 25.0479 30.3969 24.9529 30.1359 24.9529ZM30.4719 25.5899C30.3713 25.6519 30.2537 25.6803 30.1359 25.6709C30.0168 25.6805 29.8978 25.6522 29.7959 25.5899C29.7484 25.5526 29.711 25.5039 29.6872 25.4483C29.6634 25.3927 29.654 25.3321 29.6599 25.2719C29.6544 25.2116 29.664 25.151 29.6877 25.0953C29.7114 25.0396 29.7486 24.9907 29.7959 24.9529C29.9005 24.8995 30.0164 24.8716 30.1339 24.8716C30.2514 24.8716 30.3672 24.8995 30.4719 24.9529C30.5149 24.9941 30.5491 25.0435 30.5725 25.0983C30.5958 25.153 30.6079 25.2119 30.6079 25.2714C30.6079 25.3309 30.5958 25.3898 30.5725 25.4446C30.5491 25.4993 30.5149 25.5488 30.4719 25.5899Z" fill="black"/>
<path d="M31.7153 25.6511L31.4223 25.0221H31.4163L31.1283 25.6511H31.0493L30.7373 24.8931H30.8373L31.0973 25.5291H31.1033L31.3853 24.8931H31.4663L31.7563 25.5291H31.7623L32.0163 24.8931H32.1113L31.7993 25.6511H31.7153Z" fill="black"/>
<path d="M32.6708 24.9519C32.4278 24.9519 32.3448 25.0599 32.3298 25.2159H33.0118C33.0038 25.0419 32.9118 24.9519 32.6708 24.9519ZM32.6708 25.6719C32.5589 25.684 32.4465 25.6536 32.3558 25.5869C32.3136 25.5467 32.2811 25.4975 32.2605 25.4429C32.2399 25.3884 32.2318 25.33 32.2368 25.2719C32.2339 25.2107 32.2451 25.1497 32.2696 25.0935C32.294 25.0373 32.3311 24.9875 32.3778 24.9479C32.4671 24.8911 32.5722 24.8642 32.6778 24.8709C32.7829 24.8656 32.8872 24.8914 32.9778 24.9449C33.0274 24.9872 33.0653 25.0415 33.0881 25.1025C33.1108 25.1636 33.1176 25.2295 33.1078 25.2939H32.3298C32.3298 25.4499 32.3848 25.5879 32.6788 25.5879C32.8101 25.585 32.9409 25.5709 33.0698 25.5459V25.6239C32.9382 25.6517 32.8043 25.6674 32.6698 25.6709L32.6708 25.6719Z" fill="black"/>
<path d="M33.3623 25.6511V24.8921H33.4343L33.4423 24.9371C33.5638 24.897 33.6904 24.8747 33.8183 24.8711H33.8293V24.9561H33.8093C33.6877 24.9581 33.5671 24.9779 33.4513 25.0151V25.6501L33.3623 25.6511Z" fill="black"/>
<path d="M34.3441 24.9519C34.1001 24.9519 34.0181 25.0599 34.0031 25.2159H34.6851C34.6771 25.0419 34.5851 24.9519 34.3441 24.9519ZM34.3441 25.6719C34.2319 25.6838 34.1192 25.6535 34.0281 25.5869C33.9484 25.4982 33.9062 25.382 33.9105 25.2627C33.9147 25.1435 33.9652 25.0306 34.0511 24.9479C34.1405 24.8911 34.2455 24.8642 34.3511 24.8709C34.4562 24.8657 34.5605 24.8915 34.6511 24.9449C34.7007 24.9872 34.7387 25.0415 34.7614 25.1025C34.7842 25.1636 34.7909 25.2295 34.7811 25.2939H34.0031C34.0031 25.4499 34.0581 25.5879 34.3521 25.5879C34.4834 25.5849 34.6142 25.5708 34.7431 25.5459V25.6239C34.6115 25.6515 34.4776 25.6672 34.3431 25.6709L34.3441 25.6719Z" fill="black"/>
<path d="M35.7469 25.003C35.6482 24.9688 35.5443 24.9519 35.4399 24.953C35.1769 24.953 35.0529 25.041 35.0529 25.272C35.0529 25.503 35.1529 25.587 35.3529 25.587C35.4855 25.5811 35.6172 25.5617 35.7459 25.529V25.003H35.7469ZM35.7639 25.651L35.7559 25.606C35.6217 25.6416 35.4844 25.6637 35.3459 25.672C35.2921 25.6793 35.2374 25.6739 35.1862 25.6562C35.1349 25.6385 35.0885 25.609 35.0508 25.5701C35.013 25.5312 34.9849 25.4839 34.9688 25.4321C34.9527 25.3804 34.9489 25.3255 34.9579 25.272C34.9526 25.2065 34.9657 25.1408 34.9955 25.0822C35.0253 25.0236 35.0708 24.9743 35.1269 24.94C35.2217 24.8913 35.3273 24.8676 35.4339 24.871C35.54 24.8718 35.6454 24.888 35.7469 24.919V24.572H35.8359V25.65L35.7639 25.651Z" fill="black"/>
<path d="M37.1351 24.956C37.0021 24.9616 36.87 24.9814 36.7411 25.015V25.538C36.8396 25.5732 36.9435 25.5908 37.0481 25.59C37.3111 25.59 37.4351 25.502 37.4351 25.271C37.4351 25.04 37.3351 24.956 37.1351 24.956ZM37.3601 25.604C37.2671 25.6505 37.1641 25.6735 37.0601 25.671C36.9445 25.6707 36.8297 25.6517 36.7201 25.615V25.651H36.6611V24.573H36.7491V24.935C36.8802 24.9016 37.0141 24.8805 37.1491 24.872C37.2453 24.8647 37.3408 24.8924 37.4181 24.95C37.4608 24.9911 37.4937 25.0413 37.5143 25.0969C37.5349 25.1525 37.5427 25.212 37.5371 25.271C37.5421 25.3367 37.529 25.4024 37.4992 25.4611C37.4694 25.5198 37.4241 25.5693 37.3681 25.604H37.3601Z" fill="black"/>
<path d="M37.647 25.944V25.861C37.691 25.861 37.732 25.869 37.76 25.869C37.8113 25.8733 37.8625 25.8602 37.9053 25.8317C37.9482 25.8032 37.9801 25.761 37.996 25.712L38.026 25.653L37.626 24.894H37.726L38.064 25.548H38.07L38.392 24.894H38.492L38.065 25.745C38.0426 25.8096 37.9995 25.865 37.9423 25.9025C37.8851 25.9399 37.8171 25.9573 37.749 25.952C37.7122 25.9516 37.6754 25.949 37.639 25.944H37.647Z" fill="black"/>
<path d="M39.7203 25.2178H39.4263V25.4838H39.7263C39.9263 25.4838 40.0053 25.4618 40.0053 25.3508C40.0053 25.2398 39.9053 25.2178 39.7253 25.2178H39.7203ZM39.6653 24.7878H39.4263V25.0588H39.6673C39.8673 25.0588 39.9473 25.0338 39.9473 24.9228C39.9473 24.8118 39.8473 24.7878 39.6653 24.7878ZM40.1223 25.5798C39.9732 25.648 39.8079 25.673 39.6453 25.6518H39.1963V24.6238H39.6343C39.7832 24.6065 39.9341 24.6293 40.0713 24.6898C40.1045 24.7109 40.1314 24.7407 40.149 24.7759C40.1666 24.8112 40.1743 24.8505 40.1713 24.8898C40.1742 24.9404 40.1599 24.9905 40.1306 25.0319C40.1014 25.0733 40.059 25.1036 40.0103 25.1178V25.1238C40.071 25.1282 40.1277 25.1559 40.1684 25.2013C40.209 25.2466 40.2305 25.3059 40.2283 25.3668C40.2315 25.4086 40.223 25.4505 40.2035 25.4876C40.184 25.5248 40.1545 25.5557 40.1183 25.5768L40.1223 25.5798Z" fill="black"/>
<path d="M41.1344 25.3369C41.0454 25.3309 40.9564 25.3259 40.8604 25.3259C40.7054 25.3259 40.6524 25.3569 40.6524 25.4259C40.6524 25.4949 40.6974 25.5259 40.8154 25.5259C40.9231 25.5223 41.03 25.5072 41.1344 25.4809V25.3369ZM41.1784 25.6559V25.6109C41.044 25.6483 40.9058 25.6704 40.7664 25.6769C40.686 25.6822 40.6058 25.663 40.5364 25.6219C40.5085 25.6006 40.4862 25.5728 40.4714 25.5409C40.4566 25.509 40.4497 25.474 40.4515 25.4389C40.4492 25.3955 40.4603 25.3524 40.4832 25.3154C40.506 25.2785 40.5396 25.2493 40.5794 25.2319C40.6699 25.1989 40.7663 25.185 40.8624 25.1909C40.9424 25.1909 41.0484 25.1909 41.1374 25.2019V25.1879C41.1374 25.0709 41.0594 25.0319 40.8464 25.0319C40.7634 25.0319 40.6634 25.0319 40.5664 25.0449V24.8919C40.6724 24.8839 40.7934 24.8779 40.8924 24.8779C41.0147 24.8673 41.1374 24.8916 41.2464 24.9479C41.2843 24.9788 41.3134 25.0191 41.3309 25.0647C41.3485 25.1102 41.3538 25.1596 41.3464 25.2079V25.6569L41.1784 25.6559Z" fill="black"/>
<path d="M42.3313 25.6509V25.2319C42.3313 25.0939 42.2613 25.0439 42.1313 25.0439C42.0266 25.0488 41.9227 25.0649 41.8214 25.0919V25.6509H41.6104V24.8919H41.7823L41.7903 24.9409C41.9222 24.9021 42.0581 24.8789 42.1953 24.8719C42.2888 24.864 42.3817 24.8919 42.4553 24.9499C42.4857 24.9807 42.5089 25.0178 42.5233 25.0586C42.5377 25.0994 42.5428 25.1429 42.5383 25.1859V25.6509H42.3313Z" fill="black"/>
<path d="M43.1402 25.672C43.0393 25.6799 42.939 25.6515 42.8572 25.5919C42.8143 25.551 42.7813 25.5008 42.7607 25.4452C42.7401 25.3895 42.7324 25.33 42.7382 25.271C42.7342 25.2084 42.7461 25.1459 42.7729 25.0892C42.7996 25.0325 42.8404 24.9836 42.8912 24.9469C42.9926 24.8902 43.1083 24.8642 43.2242 24.8719C43.3122 24.8719 43.3982 24.8779 43.4922 24.8859V25.049C43.4152 25.041 43.3252 25.0349 43.2512 25.0349C43.0512 25.0349 42.9512 25.0989 42.9512 25.2729C42.9512 25.4469 43.0212 25.5079 43.1862 25.5079C43.2935 25.5042 43.4002 25.4912 43.5052 25.4689V25.6239C43.3842 25.6526 43.2605 25.669 43.1362 25.6729L43.1402 25.672Z" fill="black"/>
<path d="M44.1342 25.03C43.9342 25.03 43.8442 25.094 43.8442 25.266C43.8442 25.438 43.9322 25.513 44.1342 25.513C44.3362 25.513 44.4202 25.45 44.4202 25.278C44.4202 25.106 44.3352 25.029 44.1342 25.029V25.03ZM44.4972 25.592C44.3871 25.6548 44.2605 25.6827 44.1342 25.672C44.0073 25.6823 43.8802 25.6545 43.7692 25.592C43.7244 25.5516 43.6886 25.5022 43.6641 25.4471C43.6396 25.392 43.627 25.3323 43.627 25.272C43.627 25.2116 43.6396 25.152 43.6641 25.0969C43.6886 25.0418 43.7244 24.9924 43.7692 24.952C43.8834 24.8993 44.0075 24.8721 44.1332 24.8721C44.2589 24.8721 44.3831 24.8993 44.4972 24.952C44.542 24.9924 44.5778 25.0418 44.6023 25.0969C44.6268 25.152 44.6395 25.2116 44.6395 25.272C44.6395 25.3323 44.6268 25.392 44.6023 25.4471C44.5778 25.5022 44.542 25.5516 44.4972 25.592Z" fill="black"/>
<path d="M45.8601 25.6709C45.7286 25.6792 45.5982 25.6418 45.4911 25.5649C45.4342 25.5098 45.3903 25.4427 45.3626 25.3685C45.335 25.2943 45.3242 25.2148 45.3312 25.1359C45.326 25.0514 45.3424 24.967 45.3787 24.8905C45.4151 24.8141 45.4703 24.7482 45.5391 24.6989C45.6715 24.6243 45.8225 24.5896 45.9741 24.5989C46.0881 24.5989 46.2061 24.6069 46.3341 24.6179V24.8029C46.2241 24.7939 46.0881 24.7859 45.9831 24.7859C45.6901 24.7859 45.5651 24.8969 45.5651 25.1349C45.5651 25.3729 45.6811 25.4839 45.8971 25.4839C46.0518 25.4787 46.2055 25.4582 46.3561 25.4229V25.6059C46.192 25.6435 46.0245 25.6649 45.8561 25.6699L45.8601 25.6709Z" fill="black"/>
<path d="M46.9772 25.0069C46.8022 25.0069 46.7342 25.0709 46.7202 25.1849H47.2302C47.2302 25.0629 47.1532 25.0069 46.9772 25.0069ZM46.9462 25.6719C46.8325 25.6823 46.7188 25.6522 46.6252 25.5869C46.5847 25.544 46.553 25.4935 46.5321 25.4383C46.5111 25.3831 46.5013 25.3243 46.5032 25.2653C46.505 25.2062 46.5185 25.1482 46.5429 25.0944C46.5673 25.0406 46.602 24.9922 46.6452 24.9519C46.7448 24.8912 46.8609 24.8632 46.9772 24.8719C47.092 24.8648 47.2064 24.8915 47.3062 24.9489C47.4282 25.0339 47.4392 25.1669 47.4412 25.3229H46.7212C46.7212 25.4389 46.7882 25.5139 47.0012 25.5139C47.1353 25.5104 47.2689 25.4973 47.4012 25.4749V25.6219C47.2505 25.6513 47.0977 25.668 46.9442 25.6719H46.9462Z" fill="black"/>
<path d="M48.3821 25.651V25.232C48.3821 25.094 48.3101 25.044 48.1821 25.044C48.0774 25.049 47.9735 25.0651 47.8721 25.092V25.651H47.6611V24.892H47.8331L47.8411 24.941C47.973 24.9023 48.1089 24.8791 48.2461 24.872C48.3396 24.8638 48.4326 24.8917 48.5061 24.95C48.5365 24.9808 48.5597 25.0179 48.5741 25.0587C48.5884 25.0995 48.5936 25.143 48.5891 25.186V25.651H48.3821Z" fill="black"/>
<path d="M49.1943 25.672C49.1474 25.6768 49.1002 25.6693 49.0571 25.6504C49.0139 25.6315 48.9765 25.6017 48.9483 25.564C48.9062 25.495 48.8866 25.4147 48.8923 25.334V25.051H48.7393V24.893H48.8923L48.9143 24.665H49.1023V24.893H49.4023V25.051H49.1023V25.294C49.0992 25.3437 49.1067 25.3935 49.1243 25.44C49.1373 25.4644 49.1576 25.4843 49.1822 25.4968C49.2069 25.5093 49.2348 25.5139 49.2623 25.51C49.3133 25.509 49.3641 25.5036 49.4143 25.494V25.646C49.3423 25.662 49.269 25.6711 49.1953 25.673L49.1943 25.672Z" fill="black"/>
<path d="M49.6084 25.6511V24.8921H49.7804L49.7884 24.9411C49.9097 24.9 50.0364 24.8768 50.1644 24.8721H50.1914V25.0521C50.1684 25.0521 50.1394 25.0521 50.1174 25.0521C50.0162 25.0525 49.9154 25.0656 49.8174 25.0911V25.6511H49.6084Z" fill="black"/>
<path d="M50.9604 25.3368C50.8714 25.3308 50.7824 25.3258 50.6864 25.3258C50.5334 25.3258 50.4784 25.3568 50.4784 25.4258C50.4784 25.4948 50.5234 25.5258 50.6424 25.5258C50.7497 25.5223 50.8563 25.5072 50.9604 25.4808V25.3368ZM51.0054 25.6558L50.9994 25.6108C50.865 25.6483 50.7267 25.6704 50.5874 25.6768C50.5069 25.6818 50.4268 25.6626 50.3574 25.6218C50.3279 25.5967 50.3051 25.5647 50.2909 25.5286C50.2767 25.4926 50.2716 25.4536 50.2759 25.4152C50.2802 25.3767 50.294 25.3398 50.3158 25.3079C50.3377 25.2759 50.3671 25.2498 50.4014 25.2318C50.4925 25.1986 50.5895 25.1846 50.6864 25.1908C50.7644 25.1908 50.8714 25.1908 50.9604 25.2018V25.1878C50.9604 25.0708 50.8824 25.0318 50.6694 25.0318C50.5864 25.0318 50.4864 25.0318 50.3904 25.0448V24.8918C50.4964 24.8838 50.6154 24.8778 50.7164 24.8778C50.8379 24.8674 50.96 24.8917 51.0684 24.9478C51.1064 24.9785 51.1357 25.0188 51.1533 25.0644C51.1708 25.1101 51.176 25.1595 51.1684 25.2078V25.6568L51.0054 25.6558Z" fill="black"/>
<path d="M51.4443 24.5732H51.6563V25.6512H51.4443V24.5732Z" fill="black"/>
</svg>
