<svg width="62" height="39" viewBox="0 0 62 39" fill="none" xmlns="http://www.w3.org/2000/svg">
<path d="M56.532 38.373H4.632C3.4041 38.3717 2.22685 37.8834 1.3585 37.0152C0.490143 36.147 0.00158812 34.9699 0 33.742V4.632C0.00158758 3.40401 0.49011 2.22677 1.35843 1.35844C2.22676 0.49012 3.404 0.00158758 4.632 0H56.532C57.76 0.00158758 58.9372 0.49012 59.8056 1.35844C60.6739 2.22677 61.1624 3.40401 61.164 4.632V33.742C61.1624 34.9699 60.6739 36.147 59.8055 37.0152C58.9371 37.8834 57.7599 38.3717 56.532 38.373ZM4.635 0.392014C3.51062 0.393337 2.43268 0.84058 1.63762 1.63564C0.842566 2.43069 0.395322 3.50863 0.393999 4.63301V33.743C0.395587 34.8671 0.84298 35.9447 1.63803 36.7394C2.43309 37.5341 3.51089 37.981 4.635 37.982H56.535C57.6592 37.9812 58.7371 37.5344 59.5323 36.7397C60.3274 35.9449 60.7747 34.8672 60.776 33.743V4.63301C60.7749 3.50855 60.3278 2.43044 59.5327 1.63533C58.7376 0.840218 57.6595 0.393073 56.535 0.392014H4.635Z" fill="black"/>
<path d="M37.0773 12.3713C33.7053 12.3713 31.3353 14.1643 31.3133 16.7293C31.2933 18.6293 33.0083 19.6883 34.2993 20.3193C35.6313 20.9653 36.0753 21.3803 36.0713 21.9573C36.0583 22.8413 35.0053 23.2453 34.0273 23.2453C32.9181 23.2791 31.8174 23.0423 30.8203 22.5553L30.3773 22.3443L29.9003 25.3003C31.1115 25.7709 32.4008 26.0084 33.7003 26.0003C37.2813 26.0003 39.6093 24.2283 39.6373 21.4903C39.6513 19.9853 38.7373 18.8443 36.7703 17.9023C35.5823 17.2903 34.8473 16.8853 34.8583 16.2643C34.8583 15.7163 35.4753 15.1293 36.8133 15.1293C37.6905 15.1088 38.5615 15.2819 39.3643 15.6363L39.6693 15.7883L40.1323 12.9263C39.1569 12.5527 38.1207 12.3638 37.0763 12.3693L37.0773 12.3713ZM26.4873 12.6033L24.3543 25.8103H27.7623L29.8973 12.6033H26.4873ZM21.4933 12.6163L18.1553 21.6163L17.8003 19.7883C16.9636 17.4182 15.2794 15.4416 13.0723 14.2393L16.1283 25.7973H19.7373L25.1053 12.6193L21.4933 12.6163ZM46.2463 12.6163C45.8675 12.5707 45.4846 12.6546 45.1596 12.8543C44.8346 13.054 44.5867 13.3578 44.4563 13.7163L39.3933 25.8163H42.9753C42.9753 25.8163 43.5603 24.1883 43.6933 23.8323L48.0593 23.8383C48.1593 24.3003 48.4743 25.8163 48.4743 25.8163H51.6403L48.8793 12.6163H46.2463ZM46.4853 16.1783L46.7133 17.3163C46.7133 17.3163 47.3673 20.4683 47.5053 21.1273H44.6743C44.9573 20.3703 46.0323 17.4353 46.0323 17.4353C46.0123 17.4713 46.3123 16.6713 46.4843 16.1773L46.4853 16.1783Z" fill="black"/>
<path d="M15.0593 12.6072H9.55932L9.52832 12.8352C11.3726 13.2253 13.0922 14.064 14.535 15.2771C15.9779 16.4902 17.0994 18.0403 17.8003 19.7902L16.6003 13.7202C16.524 13.3776 16.3244 13.0749 16.0396 12.8697C15.7548 12.6645 15.4045 12.5711 15.0553 12.6072" fill="black"/>
</svg>
