<svg width="20" height="21" viewBox="0 0 20 21" fill="none" xmlns="http://www.w3.org/2000/svg">
<path d="M14.0801 20.02H5.92017C2.38017 20.02 0 17.74 0 14.36V5.67004C0 2.28004 2.38017 0 5.92017 0H14.0801C17.6201 0 20 2.28004 20 5.67004V14.3401C20 17.7401 17.6001 20.02 14.0801 20.02ZM5.92017 1.52002C3.23017 1.52002 1.5 3.16006 1.5 5.69006V14.36C1.5 16.89 3.23017 18.52 5.92017 18.52H14.0801C16.7701 18.52 18.5 16.89 18.5 14.36V5.67004C18.5 3.14004 16.7701 1.5 14.0801 1.5L5.92017 1.52002Z" fill="white"/>
<path d="M14.0901 10.77H5.91016C5.71124 10.77 5.52054 10.6911 5.37988 10.5504C5.23923 10.4098 5.16016 10.2189 5.16016 10.02C5.16016 9.82111 5.23923 9.6304 5.37988 9.48975C5.52054 9.34909 5.71124 9.27002 5.91016 9.27002H14.0901C14.289 9.27002 14.4797 9.34909 14.6204 9.48975C14.761 9.6304 14.8401 9.82111 14.8401 10.02C14.8401 10.2189 14.761 10.4098 14.6204 10.5504C14.4797 10.6911 14.289 10.77 14.0901 10.77Z" fill="white"/>
<path d="M10.3203 14.52C10.2223 14.5213 10.1251 14.5031 10.0342 14.4666C9.94326 14.43 9.86032 14.3757 9.79055 14.3069C9.72077 14.238 9.66552 14.156 9.6277 14.0656C9.58989 13.9751 9.57032 13.8781 9.57033 13.78C9.56965 13.68 9.58873 13.5808 9.62648 13.4882C9.66424 13.3955 9.71989 13.3111 9.7903 13.24L13.0203 10.02L9.7903 6.80005C9.64985 6.65942 9.57106 6.46877 9.57106 6.27002C9.57106 6.07127 9.64985 5.88062 9.7903 5.73999C9.93093 5.59954 10.1216 5.52075 10.3203 5.52075C10.5191 5.52075 10.7097 5.59954 10.8504 5.73999L14.6204 9.48999C14.7608 9.63062 14.8396 9.82127 14.8396 10.02C14.8396 10.2188 14.7608 10.4094 14.6204 10.55L10.8504 14.3C10.7098 14.4407 10.5192 14.5198 10.3203 14.52Z" fill="white"/>
</svg>
