<svg width="21" height="23" viewBox="0 0 21 23" fill="none" xmlns="http://www.w3.org/2000/svg">
<path d="M14.9611 22.0788H6.05267C3.77231 22.0788 2.18452 21.5247 1.19353 20.3738C0.202532 19.223 -0.138383 17.4968 0.202605 15.2378L1.03379 8.84425C1.20261 7.64922 1.79207 6.55351 2.69617 5.75402C3.37229 5.18925 4.22347 4.8767 5.10441 4.86963H15.9413C17.4971 4.86963 19.3726 5.93513 20.0013 8.78025L20.8429 15.2803C21.0434 16.1404 21.052 17.0343 20.8679 17.8981C20.6837 18.7619 20.3112 19.5744 19.7773 20.278C19.1533 20.9098 18.3993 21.3981 17.5676 21.7091C16.7358 22.0201 15.8465 22.1462 14.9611 22.0788ZM5.11507 6.43601C4.63556 6.43601 3.06905 6.62777 2.62151 9.05731L1.80098 15.4508C1.53459 17.241 1.73712 18.541 2.40844 19.3296C3.07976 20.1181 4.27315 20.4804 6.06333 20.4804H14.9611C15.6106 20.5267 16.2627 20.4369 16.8755 20.2167C17.4884 19.9965 18.0484 19.6508 18.52 19.2017C18.9079 18.6717 19.1758 18.0634 19.3046 17.4193C19.4334 16.7752 19.4201 16.1107 19.2658 15.4722L18.4349 9.01478C18.0833 7.42705 17.1348 6.43601 15.952 6.43601H5.11507Z" fill="black"/>
<path d="M15.1102 6.20179C15.0049 6.20322 14.9003 6.18343 14.8027 6.14377C14.7051 6.10412 14.6163 6.0454 14.5418 5.9709C14.4673 5.8964 14.4087 5.80771 14.3691 5.7101C14.3294 5.61249 14.3096 5.50794 14.311 5.4026C14.311 4.39367 13.9102 3.42603 13.1968 2.71262C12.4834 1.9992 11.5158 1.59838 10.5068 1.59838C9.49791 1.59838 8.53026 1.9992 7.81685 2.71262C7.10343 3.42603 6.70287 4.39367 6.70287 5.4026C6.70287 5.61455 6.61861 5.81777 6.46873 5.96765C6.31886 6.11753 6.11564 6.20179 5.90368 6.20179C5.69172 6.20179 5.48825 6.11753 5.33837 5.96765C5.18849 5.81777 5.10449 5.61455 5.10449 5.4026C5.10449 3.96976 5.67357 2.59555 6.68674 1.58238C7.69991 0.569211 9.07399 0 10.5068 0C11.9388 0.00281608 13.3115 0.572942 14.3241 1.5855C15.3366 2.59806 15.9066 3.97062 15.9094 5.4026C15.9094 5.61455 15.8252 5.81777 15.6753 5.96765C15.5254 6.11753 15.3222 6.20179 15.1102 6.20179Z" fill="black"/>
<path d="M13.6716 11.0076H13.6185C13.4066 11.0076 13.2031 10.9234 13.0532 10.7735C12.9033 10.6236 12.8193 10.4204 12.8193 10.2084C12.8193 9.99648 12.9033 9.79314 13.0532 9.64326C13.2031 9.49338 13.4066 9.40925 13.6185 9.40925C13.7249 9.40784 13.8304 9.42734 13.9291 9.46674C14.0279 9.50615 14.1181 9.56462 14.1942 9.63884C14.2704 9.71305 14.3312 9.80153 14.3732 9.89925C14.4152 9.99697 14.4377 10.1021 14.439 10.2084C14.442 10.414 14.3644 10.6125 14.2231 10.7618C14.0818 10.9111 13.8877 10.9993 13.6823 11.0076" fill="black"/>
<path d="M7.45897 11.0076H7.40564C7.19368 11.0076 6.99046 10.9234 6.84058 10.7735C6.69071 10.6236 6.60645 10.4204 6.60645 10.2084C6.60645 9.99648 6.69071 9.79314 6.84058 9.64326C6.99046 9.49338 7.19368 9.40925 7.40564 9.40925C7.51199 9.40784 7.61746 9.42734 7.71626 9.46674C7.81505 9.50615 7.90516 9.56462 7.98135 9.63884C8.05755 9.71305 8.11835 9.80153 8.16034 9.89925C8.20233 9.99697 8.22477 10.1021 8.22616 10.2084C8.229 10.3106 8.21166 10.4123 8.17517 10.5077C8.13868 10.6032 8.08361 10.6906 8.01335 10.7648C7.94309 10.839 7.85901 10.8986 7.76569 10.9403C7.67236 10.9819 7.5718 11.0049 7.46963 11.0076" fill="black"/>
</svg>
