<svg width="21" height="19" viewBox="0 0 21 19" fill="none" xmlns="http://www.w3.org/2000/svg">
<path d="M10.5 19L9.42375 18.0409C7.56875 16.3647 6.0375 14.9175 4.83 13.6992C3.6225 12.4809 2.66 11.3922 1.9425 10.4332C1.225 9.47408 0.721875 8.60573 0.433125 7.8281C0.144375 7.05048 0 6.26421 0 5.4693C0 3.91405 0.529375 2.61369 1.58812 1.56821C2.64687 0.522737 3.955 0 5.5125 0C6.51 0 7.43313 0.233288 8.28187 0.699864C9.13062 1.16644 9.87 1.84038 10.5 2.72169C11.235 1.78854 12.0138 1.10164 12.8362 0.660982C13.6587 0.220327 14.5425 0 15.4875 0C17.045 0 18.3531 0.522737 19.4119 1.56821C20.4706 2.61369 21 3.91405 21 5.4693C21 6.26421 20.8556 7.05048 20.5669 7.8281C20.2781 8.60573 19.775 9.47408 19.0575 10.4332C18.34 11.3922 17.3775 12.4809 16.17 13.6992C14.9625 14.9175 13.4312 16.3647 11.5763 18.0409L10.5 19ZM10.5 16.9523C12.2675 15.3452 13.7244 13.967 14.8706 12.8179C16.0169 11.6687 16.9269 10.6621 17.6006 9.79809C18.2744 8.93406 18.7469 8.16508 19.0181 7.49113C19.2894 6.81719 19.425 6.14325 19.425 5.4693C19.425 4.32879 19.0575 3.39131 18.3225 2.65689C17.5875 1.92246 16.6425 1.55525 15.4875 1.55525C14.595 1.55525 13.7637 1.82742 12.9937 2.37176C12.2237 2.9161 11.6025 3.68076 11.13 4.66576H9.84375C9.38875 3.69804 8.77625 2.9377 8.00625 2.38472C7.23625 1.83174 6.405 1.55525 5.5125 1.55525C4.3575 1.55525 3.4125 1.92246 2.6775 2.65689C1.9425 3.39131 1.575 4.32879 1.575 5.4693C1.575 6.14325 1.71062 6.82151 1.98187 7.50409C2.25312 8.18668 2.72563 8.9643 3.39937 9.83697C4.07312 10.7096 4.9875 11.7162 6.1425 12.8568C7.2975 13.9973 8.75 15.3624 10.5 16.9523Z" fill="black"/>
</svg>
