<svg width="15" height="19" viewBox="0 0 15 19" fill="none" xmlns="http://www.w3.org/2000/svg">
<path d="M7.33392 18.3711C5.48196 18.3711 0 18.3712 0 14.945C0 11.8985 4.18559 11.5466 7.33392 11.5466C9.18589 11.5466 14.6676 11.5467 14.6676 14.9728C14.6676 18.0193 10.4823 18.3711 7.33392 18.3711ZM7.33392 12.9356C3.38924 12.9356 1.38897 13.6116 1.38897 14.945C1.38897 16.2784 3.38924 16.9821 7.33392 16.9821C11.2786 16.9821 13.2787 16.3062 13.2787 14.9728C13.2787 13.6394 11.2786 12.9356 7.33392 12.9356Z" fill="black"/>
<path d="M7.33358 9.83382C6.3623 9.82834 5.41437 9.53532 4.60944 8.99171C3.80451 8.44811 3.1785 7.67821 2.8106 6.77928C2.44271 5.88036 2.34941 4.8926 2.54226 3.94064C2.73511 2.98868 3.20564 2.11524 3.89438 1.43036C4.58312 0.74549 5.45909 0.279965 6.41212 0.0924833C7.36515 -0.094998 8.35245 0.00392346 9.24929 0.376879C10.1461 0.749834 10.9124 1.38006 11.4514 2.18804C11.9905 2.99601 12.2782 3.94551 12.2782 4.91681C12.2795 5.56757 12.1514 6.21209 11.9013 6.81285C11.6512 7.41362 11.2841 7.95869 10.8214 8.41625C10.3586 8.87382 9.80943 9.23474 9.20589 9.4781C8.60235 9.72147 7.95647 9.84242 7.30577 9.83382H7.33358ZM7.33358 1.32411C6.38071 1.32411 5.46679 1.70257 4.79301 2.37635C4.11923 3.05013 3.74066 3.96394 3.74066 4.91681C3.74066 5.86968 4.11923 6.7836 4.79301 7.45738C5.46679 8.13116 6.38071 8.50962 7.33358 8.50962V9.17641V8.50962C8.28645 8.50962 9.20014 8.13116 9.87392 7.45738C10.5477 6.7836 10.9263 5.86968 10.9263 4.91681C10.9263 3.96394 10.5477 3.05013 9.87392 2.37635C9.20014 1.70257 8.28645 1.32411 7.33358 1.32411Z" fill="black"/>
</svg>
