<svg width="124" height="31" viewBox="0 0 124 31" fill="none" xmlns="http://www.w3.org/2000/svg">
<path d="M18.249 15.378C18.249 10.197 14.322 6.138 9.042 6.138C7.293 6.138 5.742 6.534 4.356 7.359C1.122 9.372 0 12.276 0 17.952V30.459H2.64V22.011C4.323 23.694 6.633 24.585 9.042 24.585C14.322 24.585 18.249 20.559 18.249 15.378ZM15.609 15.378C15.609 19.074 12.837 21.978 9.042 21.978C5.346 21.978 2.541 19.074 2.541 15.378C2.541 11.682 5.28 8.712 9.009 8.712C12.705 8.712 15.609 11.583 15.609 15.378Z" fill="black"/>
<path d="M22.1324 0H19.4924V4.521H22.1324V0ZM22.1324 6.27H19.4924V23.958H22.1324V6.27Z" fill="black"/>
<path d="M31.9657 5.808C29.4577 5.94 27.7087 6.468 26.4217 7.524V6.27H23.7817V23.958H26.4217V14.454C26.4217 10.56 28.2697 8.58 31.9657 8.514V5.808Z" fill="black"/>
<path d="M50.5661 19.074C50.5661 18.447 50.5661 17.985 50.5991 17.49C50.5991 17.061 50.6321 16.632 50.6321 16.236C50.6321 14.256 50.5331 12.606 49.6421 10.857C48.4211 8.052 44.8571 5.874 41.5241 5.874C36.3431 5.874 32.3171 9.933 32.3171 15.114C32.3171 20.295 36.2441 24.354 41.5241 24.354C44.0321 24.354 46.2101 23.496 47.8931 21.813L47.9261 23.958H50.5661V19.074ZM48.0251 15.114C48.0251 18.711 45.3521 21.747 41.5571 21.747C37.6631 21.747 34.9571 18.843 34.9571 15.114C34.9571 11.319 37.7291 8.514 41.5241 8.514C45.2201 8.514 48.0251 11.319 48.0251 15.114Z" fill="black"/>
<path d="M78.4926 23.958V14.256C78.4926 9.438 76.4466 6.039 71.4636 6.039C69.2196 6.039 66.9756 7.161 65.7546 8.778C65.6226 8.547 65.4906 8.448 65.3586 8.283C64.1376 6.798 62.2236 6.039 60.0786 6.039C58.7256 6.039 53.0496 6.93 53.0496 14.058L53.0826 23.958H55.7226V14.091C55.7226 10.626 57.4716 8.613 59.9796 8.613C62.7186 8.613 64.4346 10.032 64.4346 14.256V23.958H67.0746V14.256C67.0746 10.164 69.0546 8.613 71.4636 8.613C74.7306 8.613 75.8526 11.022 75.8526 14.256V23.958H78.4926Z" fill="black"/>
<path d="M83.6852 0H81.0452V4.521H83.6852V0ZM83.6852 6.27H81.0452V23.958H83.6852V6.27Z" fill="black"/>
<path d="M84.6084 15.114C84.6084 20.295 88.5354 24.354 93.7824 24.354C95.4654 24.354 97.0494 23.958 98.5014 23.133C101.9 21.021 102.89 18.348 102.89 12.507V0H100.217V8.481C98.5014 6.798 96.2574 5.874 93.7824 5.874C88.5354 5.874 84.6084 9.867 84.6084 15.114ZM87.2484 15.114C87.2484 11.319 90.0204 8.514 93.7824 8.514C97.5114 8.514 100.316 11.319 100.316 15.114C100.316 18.777 97.5774 21.747 93.8814 21.747C90.0204 21.747 87.2484 18.876 87.2484 15.114Z" fill="black"/>
<path d="M123.207 14.85C122.943 9.405 118.686 6.039 114.066 6.039C108.885 6.039 104.859 9.966 104.859 15.213C104.859 20.361 108.654 24.354 114.066 24.354C117.531 24.354 121.095 22.176 123.042 17.589H120.204C118.917 20.328 116.673 21.747 114.066 21.747C111.624 21.747 108.225 19.833 107.598 16.17H123.174L123.207 14.85ZM107.697 13.596C108.324 10.659 110.898 8.613 114.165 8.613C117.168 8.613 119.874 10.659 120.402 13.596H107.697Z" fill="black"/>
</svg>
