<svg width="17" height="17" viewBox="0 0 17 17" fill="none" xmlns="http://www.w3.org/2000/svg">
<path d="M7.86695 15.7338C6.31102 15.7338 4.79003 15.2725 3.49632 14.408C2.20261 13.5436 1.19423 12.3149 0.5988 10.8774C0.00337106 9.43995 -0.15237 7.85818 0.151177 6.33215C0.454724 4.80612 1.20399 3.40435 2.3042 2.30414C3.40441 1.20393 4.80618 0.454712 6.33221 0.151165C7.85825 -0.152382 9.43996 0.0034076 10.8775 0.598836C12.3149 1.19427 13.5436 2.2026 14.4081 3.4963C15.2725 4.79001 15.7339 6.311 15.7339 7.86693C15.7339 9.95337 14.905 11.9543 13.4297 13.4297C11.9544 14.905 9.95338 15.7338 7.86695 15.7338V15.7338ZM7.86695 1.19539C6.55064 1.19539 5.2639 1.5857 4.16943 2.31701C3.07495 3.04831 2.22188 4.08774 1.71815 5.30385C1.21442 6.51996 1.08265 7.85815 1.33945 9.14916C1.59625 10.4402 2.23012 11.626 3.1609 12.5568C4.09167 13.4876 5.27753 14.1215 6.56854 14.3783C7.85956 14.6351 9.19775 14.5032 10.4139 13.9995C11.63 13.4958 12.6694 12.6428 13.4007 11.5483C14.132 10.4538 14.5223 9.16707 14.5223 7.85076C14.518 6.08845 13.8149 4.39975 12.5673 3.15512C11.3196 1.91048 9.62927 1.2115 7.86695 1.21151V1.19539Z" fill="black"/>
<path d="M15.759 16.7356C15.599 16.7321 15.4462 16.6686 15.3309 16.5578L12.4878 13.7229C12.3808 13.608 12.3225 13.4562 12.3253 13.2992C12.3281 13.1423 12.3917 12.9926 12.5027 12.8816C12.6136 12.7706 12.7634 12.707 12.9203 12.7042C13.0772 12.7014 13.2291 12.7597 13.344 12.8667L16.187 15.7017C16.2716 15.7864 16.3293 15.8943 16.3526 16.0118C16.3759 16.1292 16.3639 16.2509 16.3181 16.3615C16.2723 16.4722 16.1947 16.5667 16.0952 16.6333C15.9957 16.6999 15.8787 16.7355 15.759 16.7356Z" fill="black"/>
</svg>
