<svg width="22" height="21" viewBox="0 0 22 21" fill="none" xmlns="http://www.w3.org/2000/svg">
<path fill-rule="evenodd" clip-rule="evenodd" d="M12.4579 2.01139L14.4597 6.01317C14.6559 6.40603 15.0345 6.67845 15.4737 6.74149L19.9517 7.3865C21.0581 7.54635 21.4983 8.88815 20.6976 9.65699L17.4595 12.7706C17.1412 13.0768 16.9964 13.5169 17.0717 13.9492L17.8359 18.345C18.0241 19.4324 16.8675 20.262 15.8786 19.7476L11.8762 17.6707C11.4838 17.4669 11.0139 17.4669 10.6204 17.6707L6.61803 19.7476C5.62912 20.262 4.47255 19.4324 4.66189 18.345L5.42496 13.9492C5.50024 13.5169 5.35538 13.0768 5.03715 12.7706L1.79898 9.65699C0.998277 8.88815 1.43855 7.54635 2.54493 7.3865L7.02294 6.74149C7.46207 6.67845 7.84189 6.40603 8.03808 6.01317L10.0387 2.01139C10.5337 1.02192 11.9629 1.02192 12.4579 2.01139Z" fill="#FFE70F" stroke="black" stroke-width="1.5" stroke-linecap="round" stroke-linejoin="round"/>
</svg>
